/* XPM */
static char *meat_1672993612[] = {
/* columns rows colors chars-per-pixel */
"50 50 193 2 ",
"   c None",
".  c #85361C",
"X  c #88371C",
"o  c #85391F",
"O  c #8C3B1E",
"+  c #903E1F",
"@  c #863B21",
"#  c #8D3D21",
"$  c #913E20",
"%  c #8F401F",
"&  c #8B4127",
"*  c #8B4329",
"=  c #944321",
"-  c #9A4622",
";  c #9C4A24",
":  c #944929",
">  c #8F4830",
",  c #924C33",
"<  c #8F5436",
"1  c #95533A",
"2  c #A24C24",
"3  c #A84F24",
"4  c #A35127",
"5  c #AA5226",
"6  c #A55428",
"7  c #A95628",
"8  c #AC5C2B",
"9  c #A6582B",
"0  c #B15E2B",
"q  c #AF602E",
"w  c #B5632E",
"e  c #BA652F",
"r  c #B46631",
"t  c #BA6730",
"y  c #BC6A31",
"u  c #B56831",
"i  c #BE7337",
"p  c #C26C31",
"a  c #C86F32",
"s  c #C47335",
"d  c #CB7435",
"f  c #C97837",
"g  c #C57B3B",
"h  c #C97B39",
"j  c #D37D39",
"k  c #995B45",
"l  c #9B5F4B",
"z  c #9D614C",
"x  c #996F48",
"c  c #9F6551",
"v  c #917B55",
"b  c #A1654E",
"n  c #A26F4E",
"m  c #A16753",
"M  c #A36C59",
"N  c #A6705E",
"B  c #AB7D5A",
"V  c #A77361",
"C  c #AA7665",
"Z  c #AD7C69",
"A  c #CC813D",
"S  c #D4833D",
"D  c #97815B",
"F  c #9C8458",
"G  c #9F8962",
"H  c #A58864",
"J  c #AC9364",
"K  c #A5906B",
"L  c #B39968",
"P  c #B68A7B",
"I  c #B78B7B",
"U  c #A7977B",
"Y  c #B49E76",
"T  c #A58973",
"R  c #BBA26F",
"E  c #BAA479",
"W  c #B5A07A",
"Q  c #CD8742",
"!  c #D58740",
"~  c #D58B43",
"^  c #D88F45",
"/  c #DA944A",
"(  c #DC9A4E",
")  c #D89249",
"_  c #DF9E50",
"`  c #E09F51",
"'  c #E1A253",
"]  c #C1A774",
"[  c #C4AA75",
"{  c #C9AF79",
"}  c #C4A17F",
"|  c #CCB17C",
" . c #B98F80",
".. c #AD9E84",
"X. c #BB9284",
"o. c #BF998C",
"O. c #B5A383",
"+. c #B8A78B",
"@. c #BAAD9A",
"#. c #BBAC93",
"$. c #BEB19C",
"%. c #BEB3A1",
"&. c #B4B3B4",
"*. c #BDBCBC",
"=. c #C09C90",
"-. c #C3AE8C",
";. c #C7AF83",
":. c #CDB582",
">. c #CFB885",
",. c #C7B18E",
"<. c #CAB486",
"1. c #D2BD8D",
"2. c #C5A295",
"3. c #C6A69B",
"4. c #CDB691",
"5. c #C2B299",
"6. c #CEB997",
"7. c #D3BE92",
"8. c #CBADA2",
"9. c #C4B6A2",
"0. c #C6B8A2",
"q. c #C6BCAC",
"w. c #CBBEAA",
"e. c #CEB2A8",
"r. c #D4BAAB",
"t. c #CBBEB0",
"y. c #D5BDB4",
"u. c #D5C293",
"i. c #D7C399",
"p. c #D9C49C",
"a. c #D9CA9F",
"s. c #CDC0AB",
"d. c #DBC6A1",
"f. c #DCCBA4",
"g. c #D3C4AB",
"h. c #DBCBAB",
"j. c #D7C7AB",
"k. c #DED1AF",
"l. c #CCC2B2",
"z. c #CEC5B8",
"x. c #D4C5B3",
"c. c #DBCEB4",
"v. c #DBC6BE",
"b. c #D2C9BC",
"n. c #D7C0B9",
"m. c #DDD0B9",
"M. c #E2D3B5",
"N. c #E3D4BB",
"B. c #E7D9BF",
"V. c #C4C4C4",
"C. c #CCCBCC",
"Z. c #DECAC3",
"A. c #D5CEC2",
"S. c #D9D2C5",
"D. c #DCD6CC",
"F. c #DED8CE",
"G. c #D5D5D5",
"H. c #DBDBDC",
"J. c #D8D7D8",
"K. c #E0CFC9",
"L. c #E9DBC4",
"P. c #E2D0CA",
"I. c #E9DEC9",
"U. c #E5DAC4",
"Y. c #E4DDD5",
"T. c #EADDD9",
"R. c #E7D9D4",
"E. c #ECE1CC",
"W. c #EEE6D3",
"Q. c #E5E1DA",
"!. c #ECE1DD",
"~. c #F1EAD7",
"^. c #F2EBDB",
"/. c #DFDFE0",
"(. c #E4E4E4",
"). c #ECE6E1",
"_. c #EDEBE6",
"`. c #ECECEC",
"'. c #E7E8E8",
"]. c #F0E7E4",
"[. c #F1EAE5",
"{. c #F4EDEB",
"}. c #F5F1E3",
"|. c #F5F2EE",
" X c #F9F7ED",
".X c #FAF8EE",
"XX c #EFEFF0",
"oX c #F4F4F3",
"OX c #F8F6F5",
"+X c #FAF9F6",
"@X c #F6F7F8",
"#X c #F7F8F8",
"$X c #FBFBFB",
/* pixels */
"                                                                                                    ",
"                                                                                                    ",
"                    XX+X$X$X$XoX                                                                    ",
"                  $X|.D.x.l.b.Q.$X'.                                                                ",
"                +X).9.s.c.M.y.,.l.$XG.                                                              ",
"              $X_.0.m.~.^.^.~.I.+.D.@X                                                              ",
"      '.+X$X+XY.5.h.~.^.[.}.^.}.j.9.$X                                                              ",
"    XX$XF.s.w.s.B.~.^.}.}.}.}.{.m.$.+X                                                              ",
"    $XS.O.d.L.^.}. X.X}.}.^.^.}.j.9.#X&.H.+X$X$X$X$X$X@X(.                                          ",
"    $X9.6.L.W.[.}. X+X X^.W.^.~.5.S.$X@XOXS.2.I X.=.8.Z.|.@X                                        ",
"    $X0.6.N.I.^.}.}..X}.W.E.^.I.5.oX$X!.C * & = = % & & M R.$X                                      ",
"    $X9.4.d.L.W.~.~.~.W.E.I.W.I.0.$XT.m O ; q y i y q ; X k T.oX                                    ",
"    +Xz.-.i.d.M.B.L.L.L.L.L.E.~.g.t.m = 9 y g ~ ) ~ A r = X V oX/.                                  ",
"    oX_.O.,.p.p.p.f.f.f.h.M.L.W.j.1 - w i Q ^ ( _ _ / g 4 @ @ 2.$XV.                                ",
"      $XY.5.#.-.,.,.,.4.7.h.N.r.z - r g ~ ) _ ' ' ' ' ~ r ; O , K.@X                                ",
"        oX+X[.Y.P.D.S.w.,.7.;., % q g ~ / / / _ ' ' _ ( Q u 6 % c ].oX                              ",
"          V.Y.`.oX`.$X$Xt.H , - q s S ~ / ^ ^ ^ / / ( ` ( ! s 9 % C |.oX                            ",
"                  *.#X[.P = 6 t f A S S S S S S ~ ^ ^ ( ` ( / g q = Z ).@XG.                        ",
"                (.+Xv.b ; w a h j S S S S S S S S ~ ^ ^ ) / _ ) g q = b v.$X`.                      ",
"                $Xr., ; r s f f d d d j S S S S ^ S S ^ ~ ) / ~ s u q ; : X.{.@X                    ",
"              $XZ., = 8 s f d a d d a d j j S S S S S S ! ! Q h s y u w 4 % M T.+X                  ",
"            '.oXm X ; y d d p p a a a a a a d f s s s h A S h s s s y y u 8 - z !.oX                ",
"            oXR.* # 6 y a a p p a a a a a a y y y y y s s h f d s s i y u w 8 = Z OXC.              ",
"            @Xv.@ # ; 8 p 0 e 0 0 a a p e e e y y y y y p y s s d s y u 8 ; ; = * D.`.              ",
"            #Xn.@ # = ; 4 6 0 p 0 p p e t w t y y y y t y y p s s s y w 4 = & O o 3.@X              ",
"            @XK.# # $ $ = ; 7 t 0 w p p u e e t t y y y y y y y y s p y q 6 ; O . =.@X              ",
"            '.XXb X # $ $ - 6 0 p p p e e e e t t y y e t u y y y s s p y 8 - & o y.oX              ",
"              $Xy.* X # $ = 2 7 0 0 0 w w w e t y e e y t e e t y s s y e 8 = X k [.G.              ",
"              H.$Xe., # + + + - - - - 3 7 w w e e e e e e w w w y p y w 9 ; # # e.#X                ",
"                J.$XP.C $ + + - - - - 3 5 6 6 7 q q w q q w q w w w 0 6 ; # . P +XC.                ",
"                    XXOX=.= + 2 3 3 3 3 2 2 2 2 4 7 8 q 0 q q 0 0 8 6 = # o C XX(.                  ",
"                      T.+X=.+ + - - 2 - 2 2 ; ; ; 4 5 7 8 8 0 0 0 8 ; # . N {.'.                    ",
"                        '.{.c O $ - 2 2 2 - $ $ 2 2 2 5 8 8 8 0 8 2 = o N _.$XC.V.`.XXQ.            ",
"                          +Xr.@ $ - - 5 3 2 - - 2 - 2 2 ; 2 6 8 2 $ o < %._.oX.X|.`._.@X$X'.        ",
"                          /.{.b O $ - 3 3 2 2 2 - - - = $ $ = = & X n ;.W Y W +.+.O.W ..l.oX`.      ",
"                            $X2.X + = - 3 2 + + + $ $ # # @ @ @ @ B i.d.a.a.f.f.k.M.M.k.O.#.+XC.    ",
"                            `.!.1 O $ - 2 $ $ O + $ = # O X @ . x | i.a.a.a.f.k.f.a.f.h.u.F Q.'.    ",
"                              $X2.# # $ $ $ $ $ $ $ O O X o l T v J <.a.a.a.a.a.a.a.a.1.| K z.oX    ",
"                              '.{.C X O + $ $ $ # O O X * P ).+X@.D R u.a.a.a.a.i.u.>.| | J q.oX    ",
"                                oX].V o X X # # X X & N Z.+X(./.@XU J >.a.a.a.u.| { { [ [ F b.XX    ",
"                                  oX|.3.M 1 > , z P Z.OXoX*.    +X..L :.7.u.7.>.| [ J F D ..oXJ.    ",
"                                    /.+XOX).T.).oX+X`.V.        OXU ] | | | | | { L D @.Q.@X'.      ",
"                                        V.G./.G.V.              #XU ] | | | | | [ D l.#X(.*.        ",
"                                                                +X+.E 1.1.7.i.7.L ..#XC.            ",
"                                                                oXD.K 7.p.f.p.>.G F.`.              ",
"                                                                G.$X@.G W E E K q.+X*.              ",
"                                                                  '.oXA.%.$.q.Y.$XG.                ",
"                                                                    G.oX@X@XoX'.&.                  ",
"                                                                                                    ",
"                                                                                                    "
};
