/* XPM */
static char *_8fa74d16b5a4847b075484aac3023f9XkdezyW0Qqx7whyy[] = {
/* columns rows colors chars-per-pixel */
"50 50 132 2 ",
"   c None",
".  c #554F5B",
"X  c #56515C",
"o  c #5A535D",
"O  c #63565C",
"+  c #65585E",
"@  c #6C5B5E",
"#  c #745E5F",
"$  c #785F5F",
"%  c #77605F",
"&  c #79605F",
"*  c #575560",
"=  c #5A5661",
"-  c #5D5A64",
";  c #5C5D68",
":  c #615C65",
">  c #6C5E61",
",  c #615E68",
"<  c #735F60",
"1  c #5F626D",
"2  c #6F6364",
"3  c #61626D",
"4  c #756161",
"5  c #7C6562",
"6  c #776967",
"7  c #786967",
"8  c #7D6C69",
"9  c #616671",
"0  c #656A74",
"q  c #6A6C75",
"w  c #666F79",
"e  c #6A6F78",
"r  c #67707A",
"t  c #6C727C",
"y  c #846762",
"u  c #876C65",
"i  c #8D6B63",
"p  c #806F6B",
"a  c #926E64",
"s  c #85726C",
"d  c #89756E",
"f  c #8D786F",
"g  c #967267",
"h  c #9A7366",
"j  c #957468",
"k  c #9C7769",
"l  c #94796D",
"z  c #9C796A",
"x  c #8F7A70",
"c  c #957C71",
"v  c #987D70",
"b  c #A27C6C",
"n  c #9D8172",
"m  c #A5816F",
"M  c #A68371",
"N  c #A98673",
"B  c #A58977",
"V  c #AC8A76",
"C  c #AF8E78",
"Z  c #B08F79",
"A  c #AF917B",
"S  c #B4957D",
"D  c #B6987F",
"F  c #6F7881",
"G  c #727A82",
"H  c #737A82",
"J  c #737B83",
"K  c #757B83",
"L  c #757C83",
"P  c #737B84",
"I  c #757C84",
"U  c #737B83",
"Y  c #787E85",
"T  c #787F87",
"R  c #798087",
"E  c #778189",
"W  c #778189",
"Q  c #788189",
"!  c #78828A",
"~  c #7D878E",
"^  c #7E878E",
"/  c #7A838B",
"(  c #7E888F",
")  c #7F888F",
"_  c #7F898F",
"`  c #7F888E",
"'  c #7F8990",
"]  c #808A90",
"[  c #818B91",
"{  c #828C92",
"}  c #838D93",
"|  c #848E94",
" . c #858F95",
".. c #828C92",
"X. c #869096",
"o. c #879196",
"O. c #879197",
"+. c #879297",
"@. c #869196",
"#. c #889297",
"$. c #8B969A",
"%. c #8B959A",
"&. c #8E999D",
"*. c #8F9A9E",
"=. c #8D989C",
"-. c #909B9F",
";. c #B69980",
":. c #B79980",
">. c #B79A80",
",. c #B79980",
"<. c #B89C81",
"1. c #B99C82",
"2. c #B99D83",
"3. c #BA9F84",
"4. c #B89C82",
"5. c #BBA085",
"6. c #BBA185",
"7. c #BCA286",
"8. c #BBA185",
"9. c #BEA689",
"0. c #929DA1",
"q. c #939EA2",
"w. c #929EA1",
"e. c #94A0A3",
"r. c #95A0A3",
"t. c #96A2A5",
"y. c #99A5A7",
"u. c #99A5A7",
"i. c #C1AA8C",
"p. c #C2AD8E",
"a. c #C3AE8E",
"s. c #C2AD8E",
/* pixels */
"                . X o - - o o - - o - o - o - o - - - - - - - - - - - o - - - o o .                 ",
"            o ; 0 q t t t t t t t t t t t t t t L L L Q R R L L t t t t t t t t e q ; o             ",
"          o 0 e 9 1 o = - o o - o - - o o - o o o o - o o - o o o o - o o o - o 1 0 t 3 o           ",
"        o t 3 + @ 5 i i a @ + i i i i i i i i y o o y i i i i i i i i O @ i i i & @ + 3 e o         ",
"      - e * s B V C C C N 7 2 C A C C C C C C m @ 4 C C S C C C N m h + y Z Z Z C V g 4 = e :       ",
"    o t 9 > C ;.s d S D N # 2 S S S D 8 f S D V 4 7 D D S f 8 S S Z b @ p D S S d p C l O 9 e o     ",
"  . 3 t * c S S z n S S C # 2 S S S S l n D D V @ 7 S S S n l S S D N O p S S D z z S A u o t 3 .   ",
"  . q r o B S S S S S S C # 2 S S S D 2.D D D V @ 7 D S S S S S S D N + p D S S S S S S j X w q .   ",
"  = t ; 6 S S S S S S S C # 2 S D D 6.a.7.D D V @ 7 D S S S S S S S N O p D S S S S S S k @ 1 t =   ",
"  - H = d D S S S S S S C # 2 S 5.7.9.a.6.S S V @ 7 S S S S S S S S N O p D D S S S S S b 4 o F -   ",
"  - H * s S S S S S S S C # 2 S S S S S D S S V @ 7 S S S S S S S S N O p S S S S S S S k % * H -   ",
"  - H * s S S S S S S S V < 2 S S S S S S S S V @ 7 S S S S S S S S V > p D S S S S S V k % * H -   ",
"  - H * s A S S S S S V k # 2 C S S S S S C C N 2 4 S S S S S Z C b h O 8 S S S C V N k h # * H -   ",
"  - H = o 4 5 5 5 & 5 5 # . X 4 5 5 5 & 5 & & & X X % & 5 5 5 5 y 4 @ . X & 4 5 5 5 5 $ # X * H -   ",
"  - H = X - ; ; ; ; - ; ; ; ; - ; ; ; ; ; ; ; ; ; ; ; ; ; ; ; ; ; - ; ; : ; ; ; ; - ; ; - X - F -   ",
"  - H * ; r E ~ ~ ~ ( ~ ~ ~ ~ [ [ @.@.@.@.@.@.( ( ( ~ ~ ~ ^ ^ ^ ~ ~ ~ ~ ~ ~ ~ ~ ~ ~ / R w ; * L -   ",
"  - L * 1 E _ _ { { { [ { { { $.$.t.u.r.r.e.e.@.{ { { { { { { { } [ } [ } [ } [ } [ ] ] t ; * F -   ",
"  - F * 1 ~ @.R 3 L { [ { { { { @.&.0.&.&.+.@.{ { { { { { { { { [ } [ } [ } } } H , Y } r ; * P -   ",
"  - F * - W ! W t Q [ @.{ @.@.{ { @.&.=.#.@.{ { { } } { ..[ } ..| | } } } } } } ' t I I w ; * H -   ",
"  ; L o ; w t L W R Q / / / / / / ~ / / ( / / ~ / / ~ / ~ ~ / ~ / / / ~ / ~ / / ~ P t 0 w ; * H -   ",
"  : ~ * o 3 9 9 3 9 9 9 9 9 9 9 9 9 9 9 9 9 9 9 9 9 9 9 3 9 9 9 9 9 9 9 9 9 9 9 9 9 9 1 1 * * H -   ",
"  : / = . X X X X X X o X X X X X X X X X X X X X X X X X X X X . . . . X . o X X X X X X X * H -   ",
"  3 ( = . o o O o O o o o X X o O O o O o + o o X X o O o O O o O O o X . o O o o O o O o . = H -   ",
"  : ( * > g h g h g g k j @ o a g g h g h j h a o + a h h g g h g g i o > g h h g g h g a @ = H -   ",
"  : / = s S S S S S A S M 5 2 A A S A S S C V m < 6 S Z S Z S Z Z V h O u S S Z S Z N b h 4 * G -   ",
"  - I * s S S S S S S S V # 2 S S S S S S S S C 2 7 D S S S S S S S N O p S S S S S V V b < * G -   ",
"  - H * s D S S D S S D C # 2 S S S S S S S S V @ 7 S S S D D S D S N @ p S S S S S Z S b $ * G -   ",
"  - H * s S 8.3.a.i.2.S C # 2 S S S S S S S S V @ 7 S S S 6.a.6.3.S N O p :.S S S S S Z b $ * G -   ",
"  - H * s D D 1.a.9.5.S V % 2 S S S S S S D S V @ 6 D D D 7.a.5.:.S V O p S S S S S S S b # o G -   ",
"  - H * s D S D <.D D D A % 2 S S S S S S S D V @ 6 S D D D 2.D S S N O p :.S S S S S S b $ * I :   ",
"  - H * d S S S S S S D C # 2 D S S S S S S D V @ 6 S S S S S S S D N + p :.S S S S S S b # o ~ :   ",
"  - F o d D S S S S S S A @ 2 S S S S S S S S V @ 6 S S S S S S S S N + p S ;.S S S S S b 4 * ] ,   ",
"  - H o s S S S S S S S C # 2 S S ;.S S S S S V @ 7 S S S S S S S S N O p D S S S S S S b $ * / ,   ",
"  - H * s S S S S S C S C 5 2 S S ;.S S S S Z b @ 7 S S S ;.;.S S A N O p D S S S S Z V b $ = / :   ",
"  - H * 8 S Z C S C V V h @ > C Z Z Z Z C Z N g + 4 C Z Z Z Z Z V V M : 7 Z Z C Z Z N h h # * / :   ",
"  - H * o @ # 4 # # < < @ X X + < < < < < < < > X X > < < < < < # # @ . X > < < < < < # @ X = I -   ",
"  - H * X ; 1 1 1 1 1 1 3 3 3 3 1 1 1 1 1 1 1 1 , 9 , 3 1 ; 1 ; , 1 1 3 3 1 1 1 1 1 1 1 ; X = H -   ",
"  - H * ; t / / ' ' ' ' [ ' ' ' ' ( ' ' ' ( ( ( ] ] X.X.=.*.=.=.=.=.O.' ' ' ' ' ' ' ' / t - * F -   ",
"  - H * ; E ' ' ( [ { { { { { { ..' ............{ { %.%.q.0.0.q.u.0.$.| [ [ [ [ { ( ' { ~ ; = H -   ",
"  - H o ; ~ | I ; H { { { { { { ................{ { [ { O.%.$.$.0.| [ [ [ | | | P : I | ~ ; * H -   ",
"  - H = ; r H P I / | { | { { | | ..| | ..| ..| ..| ....[ ..=.=.} [ { { | { { [ / H T E F ; * G -   ",
"  - H * ; w 0 t I W E E E / / E ! T T ! ! T ! ! E ! T / / / T / / / / E / E / I I P F r r 1 * G -   ",
"  - P * X 1 1 1 1 1 1 1 1 1 1 1 3 3 3 , 1 1 1 1 1 1 3 1 1 1 , 3 1 1 1 1 1 1 1 1 1 1 1 1 1 X * P -   ",
"  - F * . X . . X X X . . X . . . . . . . . . . . . . . . . . . . . . X X . . . X X X X X X * L -   ",
"  - H = X O O + O O O O O X X o O + + + + + O O X . O O + + + + O @ o X X O + @ O O O O O X = H -   ",
"  - H * % k k k b b k h g @ + g k b b h b k k a O > j k k k b h k k g O @ h k k b b k h a @ * H -   ",
"  - H * s S S S d f A S N # 2 S S S S s l S V k > 6 S S S c s S C V m O p D S S f d N k h 4 * H -   ",
"  * t * 8 C C S c z V V h @ 2 C Z Z Z l v Z Z N + 4 C S S v l Z b b h O 7 C C S z l C m h # * r =   ",
"  X - o o > 4 4 4 4 4 4 @ X X @ 4 4 4 4 4 4 4 @ X X < 4 < 4 4 4 4 % @ X X @ 4 4 4 4 4 4 @ X o - o   ",
"  X . X X . . . . . . . . X X . . . . . . . . . X X . . . . . . . . . X X . . X . . . . . X X . X   "
};
