/* XPM */
static char *c4fa5376a7ab4edddcc4553ab9c06518mrfOY4M9CxsoaLar[] = {
/* columns rows colors chars-per-pixel */
"50 50 241 2 ",
"   c None",
".  c #060606",
"X  c #090807",
"o  c #090909",
"O  c #080808",
"+  c #120D0C",
"@  c #1A080B",
"#  c #19130E",
"$  c #0E0B13",
"%  c #0E0B15",
"&  c #130D15",
"*  c #120D1C",
"=  c #1C0C19",
"-  c #0D1412",
";  c #0F1815",
":  c #131314",
">  c #1C1313",
",  c #15111B",
"<  c #1A131D",
"1  c #131D1A",
"2  c #1C1D1E",
"3  c #141917",
"4  c #0D110F",
"5  c #25090A",
"6  c #370807",
"7  c #270D19",
"8  c #251A14",
"9  c #2B1A14",
"0  c #271719",
"q  c #341E17",
"w  c #351C18",
"e  c #29190C",
"r  c #14221C",
"t  c #2B2419",
"y  c #3C231C",
"u  c #36251A",
"i  c #363216",
"p  c #150D23",
"a  c #190E27",
"s  c #1A0E2B",
"d  c #151125",
"f  c #1E1322",
"g  c #171229",
"h  c #1A122C",
"j  c #1D1A21",
"k  c #1E0F33",
"l  c #1C1333",
"z  c #1E1639",
"x  c #1E193D",
"c  c #171230",
"v  c #210E2A",
"b  c #211525",
"n  c #24162A",
"m  c #26192C",
"M  c #29192E",
"N  c #261825",
"B  c #351823",
"V  c #211235",
"C  c #2D1B33",
"Z  c #22133C",
"A  c #211A3E",
"S  c #281A34",
"D  c #331E3B",
"F  c #311D36",
"G  c #200E3D",
"H  c #192521",
"J  c #1A2B25",
"K  c #182B25",
"L  c #1D332B",
"P  c #282928",
"I  c #372826",
"U  c #22332D",
"Y  c #393526",
"T  c #352638",
"R  c #253A33",
"E  c #293B35",
"W  c #2B3B35",
"Q  c #3C3C3A",
"!  c #363534",
"~  c #2C2135",
"^  c #430A05",
"/  c #45150A",
"(  c #571505",
")  c #48191A",
"_  c #560803",
"`  c #650E04",
"'  c #651806",
"]  c #701908",
"[  c #44271D",
"{  c #582A14",
"}  c #672909",
"|  c #7A2707",
" . c #783014",
".. c #4B2D23",
"X. c #442B26",
"o. c #4A3829",
"O. c #523125",
"+. c #5B3426",
"@. c #563629",
"#. c #483739",
"$. c #573C31",
"%. c #4C2A2E",
"&. c #643B2C",
"*. c #69392B",
"=. c #6F372B",
"-. c #491A27",
";. c #34443B",
":. c #324234",
">. c #47462A",
",. c #5A572B",
"<. c #474839",
"1. c #584635",
"2. c #575634",
"3. c #4F522C",
"4. c #6A402F",
"5. c #73412C",
"6. c #644333",
"7. c #6B4332",
"8. c #654A3C",
"9. c #7D4E39",
"0. c #784A37",
"q. c #69573C",
"w. c #79553C",
"e. c #6A683A",
"r. c #704018",
"t. c #241441",
"y. c #231943",
"u. c #261B4A",
"i. c #281B4E",
"p. c #271749",
"a. c #2B1E54",
"s. c #2C1F58",
"d. c #3A1F40",
"f. c #3B2344",
"g. c #2A2156",
"h. c #1F1740",
"j. c #41264A",
"k. c #452D4A",
"l. c #772747",
"z. c #374B43",
"x. c #3F524B",
"c. c #494A46",
"v. c #46554C",
"b. c #495A52",
"n. c #5D5C5B",
"m. c #565955",
"M. c #554F4A",
"N. c #6C5443",
"B. c #7B5744",
"V. c #74554B",
"C. c #57645C",
"Z. c #62635A",
"A. c #766647",
"S. c #676A66",
"D. c #6C736A",
"F. c #71746C",
"G. c #787975",
"H. c #9C3209",
"J. c #912803",
"K. c #A63B07",
"L. c #963B3B",
"P. c #92430A",
"I. c #AA4409",
"U. c #B64505",
"Y. c #A94915",
"T. c #B55513",
"R. c #834D38",
"E. c #85533D",
"W. c #8A533D",
"Q. c #875A3F",
"!. c #934932",
"~. c #AA5525",
"^. c #B15E2D",
"/. c #CC5D0B",
"(. c #C5590D",
"). c #C35A16",
"_. c #C04F04",
"`. c #CE630D",
"'. c #D5680C",
"]. c #CE6312",
"[. c #CB6218",
"{. c #D56B13",
"}. c #C86C28",
"|. c #8C5A42",
" X c #855742",
".X c #935B43",
"XX c #9A5F46",
"oX c #8C614A",
"OX c #99634A",
"+X c #836453",
"@X c #966C53",
"#X c #9E7359",
"$X c #A4694D",
"%X c #A5674C",
"&X c #AC6D51",
"*X c #A36C53",
"=X c #AD7255",
"-X c #A57459",
";X c #BB7C5C",
":X c #B27658",
">X c #B06F51",
",X c #AC7C60",
"<X c #B77E61",
"1X c #8C7061",
"2X c #C67E5D",
"3X c #87876D",
"4X c #BC8263",
"5X c #B68668",
"6X c #AA856E",
"7X c #838052",
"8X c #D28245",
"9X c #E79753",
"0X c #C78B6A",
"qX c #CB9674",
"wX c #D59A76",
"eX c #C9916F",
"rX c #DEA27D",
"tX c #E2A47E",
"yX c #EAA36A",
"uX c #E89C61",
"iX c #898885",
"pX c #9C9C99",
"aX c #91908D",
"sX c #9FA09D",
"dX c #A9A9A8",
"fX c #B9B9B7",
"gX c #A7A19C",
"hX c #DEA883",
"jX c #EAAD86",
"kX c #E5A983",
"lX c #EDB289",
"zX c #F2B68C",
"xX c #F5BB93",
"cX c #F8BE94",
"vX c #D1BDB1",
"bX c #CDC2B8",
"nX c #F4C9AA",
"mX c #CFCECE",
"MX c #D9D5D1",
"NX c #E1D3C9",
"BX c #E2E1E0",
/* pixels */
"                                                    o                                               ",
"                      !                             P                                               ",
"                      ! !                         P c.                                              ",
"                      c.!           o               S.M.                                            ",
"                      D.P       o   X X O O O X   . Q G.t     o                                     ",
"                    M.M.          o X X O X o X O o   c.dXS.o o   X                                 ",
"                  c.S.P     . O O o > o . X X X O o . o iXBXc.. . o o   o                           ",
"                  G.M.    o . . o N.wX6X8.o X X . . . . , mXfXo o O O O o                           ",
"                m.aXP     o P P ..0XqX5X5XO.o W j o . . 2 fXmX: o . o . o o O O                     ",
"                k.dXpXZ.Z.S.M.< t @X8.1.4X@X# <.pXiXm.n.dXMXn.O o * o % $ o   . o                   ",
"                  n.dXaXn.P o % * N.B.#X@X|.8 . <.G.fXfXG.! o % * % A , z i.d p *                   ",
"                p c J ~ z p * * + iXvX6X..9 @.u OX0 2 > o o + o a d i.g y.p.a.a.u.d                 ",
"            o c z l h Z A = = [ [ $.6X,X4.+ 1.5X-XI 8 I @X8 oXo.2 ) V N k i.p.s.a.u.A               ",
"            t.t.y.b M I q 9 X.<XO.X + > 9 0.@X..@XrXR.*.$X8 #X|.} (. .| ) p.a A g.p.z *             ",
"          * n 8.X.&.[ [ q # OXkXE...&.9.Q.tXtXw.8 -X2X=.J.=.Y.).].{.{.[.T.' ( N h.h.a.y.d           ",
"        h z $.:X7...W.-Xt w.$X<XR..X.XR.=X0X$XXX} w ~.T.[.).).J.U.{.{.).{.T.Y.P.B 5 z y.d           ",
"        V h |.%Xy 0.0X6X0 hX0X:XW.W.=X4XrXyX}.'.P.e '.`.'.`.I.( ( U././.{.).I.K.| / u.u.l g         ",
"      * z d E.E.w $XwXhX1.5XhXeXOX*XrXjXcXyX'.'.} r.'.{.`.'.I.| ^ ( H.U.(.(.K._ _ 6 s A t.d         ",
"        d z 0 +.y W.0XjXN.N.zXeX.XOXqXjXcXzX9X~.i T.'.'.].).H.` 6 @ 5 | H.H.J.6 6 ` 6 Z u.z ,       ",
"        d l 9 R.O.|.qXzXqXV.kX;X9.|.wXjXcXcXcXq...9X9X9X8X~.!.{ 5 X ^ U./.{.(.K. .K.^ l z y.h       ",
"        d p &.>XQ.+.$X0XB.6.:XW.*.*.W.OX4XwXlXN.o.kX<X4X:X.X&.w w + ^ /.].{.]./.K.H.^ k z t.c d     ",
"        z * &.W.&X&.[ 4.0 ..&.B. X XB.7.4.7.6.u 8 &.&.&.O.[ 0.O.0.9 5 Y.{.'.].).K.6 6 5 i.u.z p     ",
"        g a &.>X:X7.q u 7 =.R.2XOX%XqX0XqX4X5X:Xt B..X+.9 7.4.&.[ + % { `./.'._.` 6 6 = s.p.y.g     ",
"        l h 9 W.>X&.+ 5 =.L.%X%X9.R.&X&X=X:X0XhXB.O.%X+.4.&.[ q + p G v ] Y.K.] ( I.J.6 z a.h.z     ",
"        d z p y =.q + / =.%XlXtXOX$XjXxXrX>XW.@.@.# 0 ..*.O.w 0 s t.t.t.v 6 6 ( }.8X}._ a l x x *   ",
"        g l * y &.w y 9 =.W.:X=XR.E.=X;X>X%X=.9 6. Xw @.@.> & a G t.t.t.s | |  XNXBXbX X@ p.u.u.l   ",
"        l c 0 .X%X*.0 < ) =.;XwXW.Q.wXrX0X$X0.q #X&.@.%.#.F C m = t.t.t.v ~.T.>XNXNXbX*X6 y.y.h     ",
"      % z a +.&X;XO.n ~ = I +X+X@.M.B.+X1Xw.V.iXM.P d.f.f.D C C b p G t.7 Y.[.^.2XNXbX!.6 z y.x %   ",
"        h p +.OXOX8 C ~ m.c.iXaXgXfXG.mXfXQ sXBXF.iXn.b D d.C M M & Z t.f ' K.J.!.gXgXr.< S S y.l   ",
"      t <.# ,.o.o.I m < P Q C.#.F.Z.Z.3Xf.F.S.C.T T P , p M f.f.F b V t.k I w.> 3Xo.M.7X> e.T l g   ",
"      N 3.> ,.i t t < b d.#.n.T w.w.Q.w.@.G.f.7 F k.d.M F C < n f.F a Z o.:.e.o i # t t o ~ u.y.h   ",
"      c k s [ W.@.> m F T Q Z.F =.l.l.l.@.G.z.) 0 k.j.j.T C & & < < p F 3.: $ 6.,X:X0.# l z g y.l O ",
"      x x b 9.;X>X[ > 0 ,.M.aXQ %.#.#.#.#.pXn.-.%.A.Y S T D F n + b a G G G v @XxXxX:XN p.a.i.u.h   ",
"      A l ..;XqX&.X.> i 2.Y W c.C.C.S.G.D.m.z.E <.e.3.7 B B 7 5 3 C n k V N.4XlXkXkXrX&.a a.u.g ,   ",
"    h x b |.9.-XoX>.e.3.2.:.U H U U ! ;.z.:.L H J 3.,.<.:.<.,.i >.b M I #XkXcXxXkXkXrX.Xg u.y.u.l   ",
"    l x 0 .X9 O.7.i Y P L R J 1 ; o O 4 f $ . ; U :.<.,.,.e.,.:.Y * M 6.0X&XjXxXxXcXkXXXg l l z     ",
"    A y.f 7.*.9.y 8 ; ;.L L R L r - o b C f ; r R E x.v.v.C.;.; n a S * w $XhXqXjXqXwX..z h i.y.*   ",
"    d y.Z S %.O.u < 1 z.x.z.E U L ; 3 M C C 2 R E ;.b.D.F.C.x.K < N C a X.B.&.|. X9.6.V a p u.h o   ",
"    h y.l k k k < f ; L R E ;.R K r d C C C N H m.C.;.v.F.G.v.L , n n f G G n M a b p z A A u.y.    ",
"    d x A a s Z g o 1 L R R L K r - < C C C C < U S.F.b.b.z.;.;.H b M b G Z V s k s a z g u.y.d     ",
"    l c l a s t.l $ J L R L H K U H < C C C C m 1 z.S.G.F.D.D.C.H f F a Z a p x l u.l i.x A c d     ",
"    d l g z a a Z g r J R :.R :.L j M C C C C C < L C.C.D.S.b.E 2 b n V Z p g u.h g l x A u.x       ",
"    l z y.z p z V V k d r 1 ; d N C C F C C F C M 2 J E R r 3 % d f V G t.l i.h a.p d d z y.l o     ",
"    h z d t.l u.a Z k a 1 ; . , n n n n m n m n m b , % o - r * Z Z a Z k A g.g A y.i.l y.z z       ",
"      - p u.z a p Z a s 1 o o g k k n k k k s v s s Z k & o r % s k a a g y.l x x d g.A y., d       ",
"        - l c g p s k p - . d g k k s t.Z a a Z s l V s p O r ; s a a u.g g.A l i.  g g   o         ",
"            * p a a G $ . o h a V p V V k s * G a s p V G o - 1 p k s g.y.l g.% h                   ",
"                    * o o * k a G p G s a V * k p G * k l $ o o $ s a h l   c                       ",
"                    O O O o p p a   a &   $       a o a *   o . . O                                 ",
"                  o o O O                                   O o O O                                 "
};
