/* XPM */
static char *_843ef88cf2c4516897977281b688f17WSpRIEWGFLXXhHw2[] = {
/* columns rows colors chars-per-pixel */
"50 50 234 2 ",
"   c None",
".  c #060606",
"X  c #090807",
"o  c #090909",
"O  c #070807",
"+  c #120C0C",
"@  c #1A090B",
"#  c #1A150D",
"$  c #0E0B13",
"%  c #0E0B15",
"&  c #130D15",
"*  c #120D1C",
"=  c #1C0E15",
"-  c #0D1412",
";  c #0F1815",
":  c #141313",
">  c #1D1313",
",  c #15111C",
"<  c #1A121D",
"1  c #131C1A",
"2  c #1C1D1D",
"3  c #131917",
"4  c #0D110F",
"5  c #290C0D",
"6  c #390807",
"7  c #270F18",
"8  c #241A15",
"9  c #271817",
"0  c #341E16",
"q  c #361916",
"w  c #281407",
"e  c #14221C",
"r  c #2B261A",
"t  c #3B231B",
"y  c #35241A",
"u  c #373418",
"i  c #150D23",
"p  c #180E26",
"a  c #1A0E2B",
"s  c #151125",
"d  c #1D1323",
"f  c #171229",
"g  c #1A122C",
"h  c #1B1B21",
"j  c #1E0F33",
"k  c #1C1333",
"l  c #1E163A",
"z  c #1E193D",
"x  c #171230",
"c  c #211424",
"v  c #24162B",
"b  c #26192C",
"n  c #29192E",
"m  c #261925",
"M  c #351C24",
"N  c #211235",
"B  c #2D1C33",
"V  c #22133C",
"C  c #211A3E",
"Z  c #281B35",
"A  c #331E3A",
"S  c #341C35",
"D  c #210F31",
"F  c #192521",
"G  c #192B25",
"H  c #1D332B",
"J  c #282A28",
"K  c #3A2A22",
"L  c #382426",
"P  c #22332D",
"I  c #3A3627",
"U  c #342636",
"Y  c #253A33",
"T  c #293B35",
"R  c #2B3B35",
"E  c #353432",
"W  c #3D3C3B",
"Q  c #3A3636",
"!  c #2C2135",
"~  c #47191A",
"^  c #540F06",
"/  c #671709",
"(  c #701904",
")  c #44281D",
"_  c #542C0C",
"`  c #67270A",
"'  c #6D2A0E",
"]  c #531D24",
"[  c #452C22",
"{  c #4A2D23",
"}  c #452C2B",
"|  c #512723",
" . c #4A3429",
".. c #5D392B",
"X. c #573527",
"o. c #483739",
"O. c #543D31",
"+. c #4A2935",
"@. c #692B29",
"#. c #643C2C",
"$. c #693D2D",
"%. c #613429",
"&. c #6D342E",
"*. c #34453B",
"=. c #2D423B",
"-. c #47462A",
";. c #59582C",
":. c #484838",
">. c #554736",
",. c #575736",
"<. c #644333",
"1. c #6B4333",
"2. c #674A3A",
"3. c #7C4B36",
"4. c #744E3A",
"5. c #7D4E39",
"6. c #754634",
"7. c #645A38",
"8. c #7B543D",
"9. c #6A402F",
"0. c #676539",
"q. c #736A3C",
"w. c #241441",
"e. c #231A43",
"r. c #261B4A",
"t. c #281B4E",
"y. c #291948",
"u. c #2B1E54",
"i. c #2C1F58",
"p. c #3A2243",
"a. c #3F2549",
"s. c #2A2156",
"d. c #41264B",
"f. c #472E4B",
"g. c #772747",
"h. c #374B43",
"j. c #3F524B",
"k. c #484A46",
"l. c #45544C",
"z. c #52524A",
"x. c #495952",
"c. c #5D5C5B",
"v. c #565955",
"b. c #574D46",
"n. c #6D5544",
"m. c #7A5644",
"M. c #76554C",
"N. c #57645C",
"B. c #79664A",
"V. c #62635A",
"C. c #676A66",
"Z. c #6C736A",
"A. c #71746C",
"S. c #787975",
"D. c #8D300D",
"F. c #933939",
"G. c #912D03",
"H. c #984609",
"J. c #9C5016",
"K. c #B2500D",
"L. c #854D3A",
"P. c #824C37",
"I. c #95433D",
"U. c #85533D",
"Y. c #8B543D",
"T. c #875A3F",
"R. c #91563E",
"E. c #A86136",
"W. c #C95C05",
"Q. c #D66C15",
"!. c #CF6711",
"~. c #E57A14",
"^. c #8C5A42",
"/. c #855943",
"(. c #945B43",
"). c #8D624B",
"_. c #9C6349",
"`. c #976249",
"'. c #846452",
"]. c #966B52",
"[. c #9C7359",
"{. c #A2644A",
"}. c #A5694D",
"|. c #AA6E51",
" X c #A26D52",
".X c #AD7255",
"XX c #A67559",
"oX c #B27556",
"OX c #B47B5C",
"+X c #BC7D5D",
"@X c #B37759",
"#X c #AD7D60",
"$X c #A47961",
"%X c #BB7F60",
"&X c #966555",
"*X c #C17E62",
"=X c #EB8D39",
"-X c #BB8059",
";X c #87866C",
":X c #BC8363",
">X c #B8886A",
",X c #A9836D",
"<X c #848152",
"1X c #C1805F",
"2X c #C68967",
"3X c #CC916E",
"4X c #CB9774",
"5X c #D39773",
"6X c #D59975",
"7X c #DC9E79",
"8X c #D89C78",
"9X c #D2926E",
"0X c #DEA27D",
"qX c #E2A57E",
"wX c #E49759",
"eX c #898885",
"rX c #9C9C99",
"tX c #91908D",
"yX c #9FA09D",
"uX c #A9A9A8",
"iX c #B9B9B7",
"pX c #A89180",
"aX c #E4A781",
"sX c #EAAD86",
"dX c #E7AC85",
"fX c #ECB18A",
"gX c #F2B68B",
"hX c #F6BB92",
"jX c #F9BE95",
"kX c #D1BDB1",
"lX c #FBC197",
"zX c #C1C1BF",
"xX c #D5D5D4",
"cX c gray88",
/* pixels */
"                                              O                                                     ",
"                                              E                             E                       ",
"                                              k.J                         Q E                       ",
"                                            z.C.              O           Q :.                      ",
"                                    O     h S.Q .   O O O O O O   o       J A.                      ",
"                                O   O . Z.uXz.  O O O X O O o o o           z.z.                    ",
"                          O   o o o . k.cXeXo . O O X X . . + > . . o o     J C.k.                  ",
"                          O O o o o o zXzX2 . o O O . . + 2.,X4Xn.+ o o o     k.S.                  ",
"                    O O O O O O o o & xXiXr . . O m E o  .:X>X3X3X[ J J o     J tXv.                ",
"                  X X   o % % o % o O c.xXuXc.v.eXyXk.: ].2X>.>.].0 : z.C.C.N.rXuX:.                ",
"                  * i p t.l * z * % % o E S.iXiXS.:.O 9 ^.].]./.n.% % o J c.tXuXc.                  ",
"                i r.i.t.y.e.g u.i a o + O o > 3 8 `.K X.9  .,XkXeX+ i % i l V b g i                 ",
"              C r.s.i.y.y.N B N  .> } ).8 ].y # K XXOX>.+ #.$X,XO.t ) & , k V g l l f $             ",
"            * l t.u.N g y.2.XX/.*X#.].[.8 }.#.U.qX].{ [.4.q 8 + X X.:X[ 9 L L n 7 e.V e.            ",
"          s e.u.V V U n.'.aXfXfXqX1X+X|.5.L.R.2XXX2 4.qX0XU.P.<.{ U.sX_.# q ^ 6 / ~ _ a i           ",
"          s e.l 9 ! ].4X5XaXhXjXfX@X_.oX+X6X6X>X[ X. X@X2X.XL.R.R.Y.OXE.' w H.( ^ ' W.` k g         ",
"        f k y.r.{ 3._.|.qXjXfX7X2X..$.oXqXfXhXfXr #XhXfXdX4X>X.XY.Y.oX!.W.# H.Q.D.~ K.K.N k         ",
"        f V e.a ) X.X.{.2X2X+X_.%.) 6.|.5XqXfXjX'.B.lXlXlXhXdX0X X`.3X=XJ._ !.Q.K.6 ' D.i k *       ",
"      , l e.V t $.t ) Y.{.{.3.9 X t $.R.2XqXdXjXaXK >XlXjXhXdX5X`.(.3XsX2._ ~.Q.G.6 ^ w l s         ",
"      g e.V k ) {.6.{.5X7XsX9X{ . 0 $.R.|.7XgXhXhXo.n.lXjXjXfX6X^.P.+XdXB.4XgX7XP.^ G.5 k s         ",
"    s x w.l l ) _._.9XsX5XaX5X{ X 0 0 %.(.oX*XOXaX .n.fX8X:X`.^.9.#.U..X2.m.3X}...H.W.' p f         ",
"    s V t.y.c 0 ) {.7XgXaXaX X9 w L.{ 3.) X.$.$.$.9 q &.#...<.m.U.U.4.<.) 9 #.t ` Q.Q.' * l         ",
"    s e.y.u.2 t t 9.1XfXjX7X..% + [ #.$.6.| X.(.m.9 {./.&.I.*X5X}.{.3X5XOX .t 0 ( Q.Q.` i f         ",
"    k e.t.V [ (.OX%.3.@X2X5.D V i o y ) #.P.@.I. ...(.F.F.{.|.|.P.3.}..X+X).0 X / K.K.7 j f         ",
"  , e.l k i $.6XjX5XO.y 0 k w.w.w.a 7 0 | &.@.~ 7 @.] Y.oX7XhXsX}._.aXsX(.$.) @ 6 ( 6 s k s         ",
"  x e.u.e.= ..2XfXjX).6.8.a w.w.w.V p = > @.@.0 (._.@.P._..X+XoXL.P.oX@X^./.5 6 6 ^ q * k f         ",
"    f e.e.0 ) _.sXlX2X6X2Xc w.w.V i v B A S L X.$.[.| F. X3X8X8X^.L.8X*X6.X.& 7 / K.E.o.x k         ",
"  * e.C V L 6.#.6XsX-XfX@Xd w.V i d n B p.d.d.A ! b.eXM.n.[.'.m.b.O.'.'.L = S d / W.=XpXd z *       ",
"  x r.Z g h 2...`.).U.-X$.a V V & n n B p.A c c.;XZ.cXuXQ uXxXS.zXrXtX;Xz.v.B A 5 H.W.1Xd f         ",
"  f k U q.# <X:.I ;X> B.E j w.N c A p.p.n < , E U E N.C.A.o.;XV.V.A.*.V.W U < n r ) _ q.- >.r       ",
"  x y.e.! o r 8 # u o 0. .-.V i S p.v d B A Z A d.A c a.S.X.m.m.8.6.E c.Q A c < u r u ;.: :.m       ",
"O x e.x N k > 5.#XOX<.$ : >.A i < , & & B A d.d.f.M ~ W S.+.g.g.g.g.L V.W U A m # X.Y.) p l x       ",
"  f r.r.u.y.9 OXhXjX'.v V V w.p d : b A S p.S I B.Q ~ c.yXo.o.o.o.+.Q tXz.;.2 7 ) |.+XP.c l l       ",
"  s f r.i.a $.7XaXsXfX%Xn.N D D B r @ 7 M M 9 ;.q.,.T k.v.A.S.C.N.N.k.Q I ;.I # I #.3X+X{ j V       ",
"  k r.r.r.g ^.qXaXaXhXjXsX[.M B m :.u ,.k.-.z.,.;.J F P =.*.*.R Y H F H *.;.-.0.-.(.XX4.^.9 z x     ",
"    k k x f `.dXjXhXhXsX|.2X<.n s I -.0.7.0.;.:.=.H * o o c & O o - e G Y H H I u 6.X.0 ^.m z k     ",
"  - r.t.g l } 6X5XsX5XqX Xq i Z c v 3 *.N.x.l.j.Y Y e 1 d ! c o ; 1 H T H H =.; 9 ) 5.$.1.c e.z     ",
"  $ g e.i f N <.5./.Y.1.m.} p v c d G j.N.Z.Z.x.=.Y P h b B b 1 ; H H Y h.j.h.1 7 L | { v w.e.f     ",
"    e.r.e.z l i c p v D D V c v n 3 G j.S.A.x.h.v.N.e c S B B < e G P h.T Y H ; < , j N k x e.g     ",
"    i e.e.g k a a j j D w.V g n h e h.*.h.x.x.Z.C.Y < B B B B d - e G H Y Y H 1 $ s V a p C z s     ",
"    s k C l t.x r.k z i a V g S d F N.Z.Z.A.A.C.h.1 b B B B B < F P G F H T H G 4 k V a a x k k     ",
"      z r.e.C k g g r.p i V D g m 1 T x.C.Z.N.N.P d B B B B B n h H T T *.P G e a V a a V p x f     ",
"    O k r.k s s i u.f t.g V V N p d & ; e T Y J 2 b B B S B B B B v 1 ; 1 1 s k N N l i C C k z     ",
"      C x r.x s.e.z g s.w.j V a V V * e - o % * m v m b b b v v v v - . ; e p j V p y.x w.s z f     ",
"      , , e.z s.f z z k e.p p p l a & e o % j w.a a a a j j j D k N a o o e a p N i s C r., $       ",
"        o   f f   r.k l s.g t.p p p ; 1 o i a D j a V p a V w.a g D p i O $ i j a i g x g *         ",
"                  x : s.x e.s.p j i ; $ o V D p a a w.* p j V j i N p j o o $ N p a s %             ",
"                      x   k g i k % o O $ D D % V i N * j a a V i w.p j * O o *                     ",
"                                O O o O   i i $ p       $   & i   i i i o O o O                     ",
"                                O O O o                                   o o O X                   "
};
