/* XPM */
static char *open_door1672993613[] = {
/* columns rows colors chars-per-pixel */
"50 50 57 1 ",
"  c None",
". c #554F5A",
"X c #56505B",
"o c #5A535D",
"O c #62565D",
"+ c #66585D",
"@ c #6C5A5E",
"# c #735E5F",
"$ c #76605F",
"% c #79615F",
"& c #575560",
"* c #595661",
"= c #5D5A64",
"- c #5D5E69",
"; c #605D66",
": c #6C5D60",
"> c #615E68",
", c #735F60",
"< c #5F626D",
"1 c #62636D",
"2 c #756161",
"3 c #7B6361",
"4 c #7F6E6A",
"5 c #616670",
"6 c #636B76",
"7 c #6A6C74",
"8 c #666E79",
"9 c #6A6F78",
"0 c #6D737C",
"q c #836661",
"w c #866863",
"e c #8B6A62",
"r c #816E6A",
"t c #936E63",
"y c #986F64",
"u c #81706B",
"i c #967165",
"p c #997164",
"a c #957468",
"s c #9B7769",
"d c #977C6F",
"f c #9E796A",
"g c #A17D6E",
"h c #A78472",
"j c #A98673",
"k c #A88A77",
"l c #AF8E78",
"z c #B4957D",
"x c #6E7780",
"c c #737B83",
"v c #797F87",
"b c #798087",
"n c #778088",
"m c #7A838A",
"M c #7F888E",
"N c #80898F",
"B c #828C92",
/* pixels */
"        .Xo==o===o=o*=*======;====*=o===o.        ",
"      *=7700000000000000cccnbbcc0000008067=o      ",
"     o7951oo=ooo=o=oooooooo&ooooooooooo=1507o     ",
"    o01o$e@eeee%o%e@OOXXXXXXX..oXXXXXXXXX.X19o    ",
"   =9*2tpp#ppyyt$ppt$w#.XXXXXXXXXXXXXXXXXXXX=9;   ",
"  o95Ogd@t#ga+tt$i@e%%oXXXXXXXXXXXXXXXXXXXXXX59o  ",
" .20X#jket#gsqtt$tqi%w@OXXXXXXXXXXXXXXXXXXXXX&01. ",
" .77.#lBgt#ggppe$ipp%tq$XXXXXXXXX.XXXXXXXXXXXX87. ",
" *0>:,jBjpqgfypt#ypp$epqXXXXXXXXXXXXXXXXXXXXXX<0* ",
" =c&u3jzgp#gfppt#ppp3epqXXXXXXXXXXXXXXXXXXXXXXoc= ",
" =c&u3hzgy#gfiit$ppp%etq.XXXXXXXXXXXXX.XXXXXXX&c= ",
" =c&u3jlgp#pfiii#ppp#eeqXXXX.XXXXXXXXXXXXXXXXX&c= ",
" =c&r3ghgy@ahppe#yyp#w$+XXXXXXXXXXXXXXXXXXXXXX*c= ",
" =c&++$###o@%%$+o#%#oO+..XXXXXXXXX.XXXXXXXXXXX*c= ",
" =c**o--+============-*Xo.XXXXXXXXXXXXXXXXXXXX=0= ",
" =co7<cM008666666666661-X.XXXXXXXXXXXXXXXXXXXX&c= ",
" ox*71bNMx8666666666666<XXXXXXXXXX..o.XXXXXXXX&c= ",
" =n*7507cn66666666666=<<XXXXXXXXXXo...XXXXXXXX=c= ",
" =co7100nn666666666665<<XXXXXXXXXX..o.oXXXXXXXoc= ",
" <bo71bBn08666666666665<XXXXXXXX..o.....XXXXXX&c= ",
" ;m*<=69866<151<55155<=oXXXXXXXXX.ooXXXXXXXXXX=c= ",
" ;n=X...oXXo..oX&XooX.XXXXXXXXXXXX..XXXXXXXXXXoc= ",
" ;M*oooOOoXoOOOXXoOoXoo.XXXXXXXXXXXXXXXXXXXXXXoc= ",
" <Mo$$pape+3tttqOete+2#oXXXXXXXXXXXXXXXXXXXXXXoc= ",
" ;n&r3jlgg#pppyt#ppp%e#@XXXXXXXXXXXXXXX.XXXXXX&c; ",
" =v&u3jzhy#ggptt#ypp%ee#XXXXXXXXXXXXXXXXXXXXXX&c= ",
" =c&eqhBgy#gpypt$ppp%epeX.XXXXXXXXXXXXXXXXXXXX&c= ",
" =couelzgt#ggypt#pyp%epqXXXXXXXXX.XXXXXXXXXXXXoc= ",
" on&u3jzgy#gfype#pyp%epqXXXXX.XXXXXXXXXXXXXXXX*c= ",
" <0ou%jzgt#gfypt$ppp$epwXXXXXXXXXXXXX.XXXXXXXX*v; ",
" =0*43jzgy#ggypt#ppp%epqXXXXXXXXXXXXXXXXXXXXXX*N; ",
" =n=u3jzgt#gsypt#ppp%epqX.XXXXXXXXXXXXXXXXXX..*N> ",
" =cou3jlfa#fhipt$ppp%etq.XXXXXXX..XXXXXXXXXXXXom; ",
" =c*u3sjhp#sfiit#pyp%eeq..XXXXXXo.XXXXXXXXXXXXom; ",
" ox*4%igpt@ipypw@tit#q$#XXX.XXXX.XXXXXXXXXXXXX=b; ",
" <x*OO###+X+###+o+#;oO+.XXXXXXXXoXXXXXXXXXXXXXon; ",
" =c*=*<<<<<<=<=<<----=&XXXXXXXXX..XXXXXXXXXXXX=c= ",
" =xo6<cBnx86666666666<<-XXXXXXXXX.XXXXXXXXXXXX=0= ",
" =c=71bNMn86666666666555XXXXXXXXXXXXXXXXXXXXXX&c= ",
" =co7101cn66666666666=<<XXXX.XXXXXXXXXXXXXXXXX&c= ",
" =c&71c0mm86666666666655XXXXXXXXXXXXXXXXXXXXXX*c= ",
" =c*71nMMc8666686666665<XXXXXXXXXXXXXXXXXXXXXXoc= ",
" =c*==5755<<<<<5<<<15<=&XXXXXXXXXXXXXXXXXXXXXX*x= ",
" =x&Xo.XXXXXXXXXXXX.XXXXXXXXXXXXXXXXXXXXXXXXXX=c= ",
" =c*oo+++OXoO++o.O+OXXo.XXXXXXXXXXXXXXXXXXXXXX&c= ",
" =c&22pgpt+eaipq+tyt#q%#XXXXXXXXXXXXXXXXXXXXXX&c= ",
" =co43huep#ha@tt#t#t$q#qXXXXXXXXXXXXXXXXXXXXXX=c= ",
" *8&43gwet@aiqte#t%t#%@#XXXXXXXXXXXXXXXXXXXXXXo8= ",
" X-X+O2,,+XO,2,OX+,#ooOoXXXXXXXXXXXXXXXX.XXXXXX=o ",
" XXXXX...XXX...XoX.....XXXXXXXXXXXXXXXXXXXXXXXX.X "
};
