/* XPM */
static char *_673073531412[] = {
/* columns rows colors chars-per-pixel */
"50 50 233 2 ",
"   c #010203",
".  c #0C0A06",
"X  c #0B0909",
"o  c #130F03",
"O  c #160908",
"+  c #191405",
"@  c #18120B",
"#  c #181615",
"$  c #2A1E03",
"%  c #2D120F",
"&  c #372708",
"*  c #36271D",
"=  c #2D2212",
"-  c #232527",
";  c #383737",
":  c #383128",
">  c #751914",
",  c #7B1A14",
"<  c #761816",
"1  c #6E1610",
"2  c #4A3405",
"3  c #533A04",
"4  c #5C231A",
"5  c #7C260F",
"6  c #7A2213",
"7  c #5A3B29",
"8  c #4D3B32",
"9  c #6E2D21",
"0  c #6A383A",
"q  c #70332A",
"w  c #4E110E",
"e  c #5F4419",
"r  c #7A560A",
"t  c #574237",
"y  c #47423E",
"u  c #63422E",
"i  c #654531",
"p  c #6B4934",
"a  c #724935",
"s  c #7B533B",
"d  c #77513A",
"f  c #78402D",
"g  c #434148",
"h  c #564D47",
"j  c #674257",
"k  c #61514E",
"l  c #7D6354",
"z  c #7D6A41",
"x  c #585564",
"c  c #4D5674",
"v  c #5F597D",
"b  c #5D627F",
"n  c #676363",
"m  c #851A15",
"M  c #8D1A17",
"N  c #8A1C19",
"B  c #931917",
"V  c #961A18",
"C  c #961918",
"Z  c #872B16",
"A  c #952216",
"S  c #9A2C14",
"D  c #992717",
"F  c #843312",
"G  c #8A3714",
"H  c #9A3412",
"J  c #933115",
"K  c #86380F",
"L  c #A73E1A",
"P  c #862D23",
"I  c #9A2B23",
"U  c #8C382F",
"Y  c #8C420D",
"T  c #964B0E",
"R  c #855C06",
"E  c #885E05",
"W  c #9C4D1A",
"Q  c #97550B",
"!  c #AB491B",
"~  c #AE5417",
"^  c #936506",
"/  c #9E6308",
"(  c #996A06",
")  c #A36D05",
"_  c #A3630A",
"`  c #A66B0A",
"'  c #A67205",
"]  c #A97406",
"[  c #AA7509",
"{  c #AC790B",
"}  c #AC7609",
"|  c #B37D0C",
" . c #AA6313",
".. c #BB631D",
"X. c #AC7B16",
"o. c #B57B12",
"O. c #84593F",
"+. c #80563D",
"@. c #954C36",
"#. c #AA4A39",
"$. c #C87920",
"%. c #8A5D42",
"&. c #865B40",
"*. c #975444",
"=. c #A85C42",
"-. c #B75542",
";. c #8B6145",
":. c #85684E",
">. c #9C6B4C",
",. c #956548",
"<. c #8B6D55",
"1. c #987356",
"2. c #93754F",
"3. c #A46B4B",
"4. c #AA7452",
"5. c #A77657",
"6. c #B37B56",
"7. c #B87E59",
"8. c #B06F4E",
"9. c #8B5961",
"0. c #A97868",
"q. c #AC766B",
"w. c #B8820E",
"e. c #B7810E",
"r. c #BC8511",
"t. c #BF8813",
"y. c #B28116",
"u. c #B28323",
"i. c #B8892B",
"p. c #B88F39",
"a. c #B78D35",
"s. c #B5893A",
"d. c #C38C15",
"f. c #C28517",
"g. c #CB9319",
"h. c #C7901A",
"j. c #D1971C",
"k. c #D49A1E",
"l. c #DB9F1B",
"z. c #DCA01E",
"x. c #CB8A20",
"c. c #C69323",
"v. c #D99E21",
"b. c #D39922",
"n. c #C99935",
"m. c #D38E21",
"M. c #DEA323",
"N. c #E0A524",
"B. c #E0A62A",
"V. c #BA815C",
"C. c #BC9544",
"Z. c #858075",
"A. c #B88765",
"S. c #BA9967",
"D. c #BE947A",
"F. c #A08A7B",
"G. c #C79354",
"H. c #C7A45B",
"J. c #D0A64D",
"K. c #CB8A61",
"L. c #C28A63",
"P. c #C9936B",
"I. c #C1936C",
"U. c #DA966A",
"Y. c #D9986C",
"T. c #DE9E72",
"R. c #D29E73",
"E. c #CE9369",
"W. c #CAAA67",
"Q. c #DBA679",
"!. c #D9A579",
"~. c #E4AC7E",
"^. c #E3A678",
"/. c #E2BA65",
"(. c #EAC26C",
"). c #5A6B9A",
"_. c #596896",
"`. c #5A6FA2",
"'. c #5B75AB",
"]. c #5C76AA",
"[. c #5A78B1",
"{. c #7D88AC",
"}. c #958F8F",
"|. c #989999",
" X c #ADA092",
".X c #929CAF",
"XX c #A6A7A7",
"oX c #A8ACB6",
"OX c #ACB4BA",
"+X c #B8BAB7",
"@X c #B3AFA9",
"#X c #A9978D",
"$X c #C09794",
"%X c #D4BA83",
"&X c #EBB584",
"*X c #EAB484",
"=X c #E4B89A",
"-X c #ECB485",
";X c #C5BAAB",
":X c #D1B3B1",
">X c #DBC497",
",X c #D8C08E",
"<X c #EDD091",
"1X c #E0CCA3",
"2X c #F2D8A3",
"3X c #E7D8BA",
"4X c #E5D6B9",
"5X c #F3D6AF",
"6X c #C6CAC2",
"7X c #C7CAC5",
"8X c #D5D3CE",
"9X c #D9D9DA",
"0X c #C9CEDD",
"qX c #E5DCC8",
"wX c #EDDFDC",
"eX c #F6E6C6",
"rX c #F7E9CA",
"tX c #E8E4D8",
"yX c #F1E9D8",
"uX c #F4EBD6",
"iX c #E6E7E6",
"pX c #F4EEE3",
"aX c #F5EEEE",
"sX c #F4F2EC",
"dX c #F9F4ED",
"fX c #F6F0E3",
"gX c #F4F3F3",
"hX c #FAF7F2",
"jX c #F6F7F9",
"kX c #FFFFFF",
"lX c #FBF9F3",
"zX c #EFF0ED",
"xX c None",
/* pixels */
"xXxXxXxXxXxXxXxXxXxXxXxXxXxXxXxXxXxXxXxXxXxXxXxXxXxXkXkXkXkXkXkXkXxXxXxXxXxXxXxXxXxXxXxXxXxXxXxXxXxX",
"xXxXxXxXxXxXxXxXxXxXxXxXxXxXxXxXxXxXxXxXxXxXxXxXxXxX3XqXeXeXeXeXrXxXxXxXxXxXxXxXxXxXxXxXxXxXxXxXxXxX",
"xXxXxXxXxXxXxXxXxXxXxXxXxXxXxXxXxXxXxXkXkXC.) f.N.k.{ { v.B.B.B.(.kXkXkXkXkXkXkXkXkXxXxXxXxXxXxXxXxX",
"xXxXxXxXxXxXxXxXxXxXxXxXxXxXxXxXxXxXyX>X,Xc.d.j.M.k.t.d.v.N.j.d.n.,X,X2X2XfXkXkXkXkXxXxXxXxXxXxXxXxX",
"xXxXxXxXxXxXxXxXxXxXxXxXxXxXxXxXxXkXtXX.] j.N.v.M.M.M.M.M.M.r.' ' ' ] l.M.5XkXkXkXkXkXkXxXxXxXxXxXxX",
"xXxXxXxXxXxXxXxXxXxXxXxXkXkXkXkX:Xq.5.[ ] j.M.j.e.d.M.M.M.M.k.h.h.g.g.M.M.J.W.1XkXkXkXkXxXxXxXxXxXxX",
"xXxXxXxXxXxXxXxXxXxXxXxXhXhXgXlX$X1 6 _ ` j.M.d.' e.M.M.M.M.M.M.M.M.M.z.v.w.' H.lXhXkXkXxXxXxXxXxXxX",
"xXxXxXxXxXkXkXW.) r.M.M.p.p.*.*.U 1 , S H ` | d.k.h.| e.k.M.M.M.M.M.M.w.{ h.k.m.p.H.dXkXxXxXxXxXxXxX",
"xXxXxXxXxXyXyXH.{ t.M.v.e.] Y 5 6 < , V V T _ t.N.k.{ | k.M.M.M.M.M.v.o.| j.N.h.) i.fXkXxXxXxXxXxXxX",
"xXxXxXkXdXp.X.g.M.M.M.M.M.M.{ ) T V C C V A A ..N.M.l.M.M.M.M.M.M.N.M.v.l.v.N.h.' i.dXkXxXxXxXxXxXxX",
"xXxXxXkXdXW.G.n.g.k.M.M.M.M.d.r. .L H M B M N ! $.$.M.M.M.M.M.M.M.M.M.M.N.v.N.j.e.i.1X4XyXxXxXxXxXxX",
"xXxXxXkXkXkXkXW.] w.M.M.M.M.M.M.d.) / 6 > > > N V ! M.M.N.N.M.M.M.M.M.M.M.N.N.M.M.k.{ { 3XkXkXxXxXxX",
"xXxXxXxXkXxXxXz 3 r t.t.d.d.k.M.j.d.o.T Y 5 < m C D ....f.d.k.M.M.M.M.M.M.g.d.g.N.k.} } 3XkXkXxXxXxX",
"xXxXxXxXxXxXxX    & ) ) ' [ g.M.N.N.k.} ' F > m C C C V _ ) d.M.M.M.v.M.M.r.' r.M.k.{ { 3XkXkXxXxXxX",
"xXxXxXxXxXxXxX@X@XZ.& 2 ( [ e.w.h.M.z.g.h._ Q G m m C C S H L ! ! ! ~ o.w.d.g.h.r.i.1X4XsXkXkXkXkXxX",
"xXxXxXxXxXxXxXkXkXXX  o E ( ( ^ e.v.z.M.M.w.{ T 6 Z D D V B C C C C V _ ` f.b.f.) u.dXkXkXkXkXkXkXxX",
"xXxXxXxXxXxXxXkXkXXX    + + + + 3 | | | y.g.v.g.m.m.m.x.Z < m C C C V D D Z Z 5 5 @.gXkXkXkXkXkXkXxX",
"kXxXxXxXxXxXxXkXkX+X; -     @ # e u.X.R E t.k.k.j.M.M.M.W G J S A M B C V m < 6 5 @.4XtXhXkXkXkXkXxX",
"kXkXkXxXxXxXxXkXkXkXjX8X#   p 3.L.&XI.@   r ] ' ' e.M.M.v.v.r.` Q < > B V , 1 F ) ` { X.3XkXkXkXkXkX",
"kXkXxXxXxXxXxXkXkX9XXX|.n n 0.L.R.-XI.X X s.W.p.' { h.h.g.h.d.r.o.W W ! ~ ! W  .r.e.' { 3XkXkXkXkXkX",
"xXxXxXxXxXxXxXkXkXXX  - iXkX5X&X&X-XI.X X 6XjX%X' ' ' ] ] ' h.N.M.M.M.M.M.M.M.M.M.v.] [ 3XkXkXkXkXxX",
"xXxXxXxXxXxXxXxXxXxXxXg gXkX=XT.~.-XQ.<.:.F.#XS.G.s.2 2 ^ ] | f.t.t.d.M.M.M.N.b.t.t.d.h./.<X2XxXxXxX",
"xXxXxXxXxXxXxXxXxXxXxXxXkXkX=XK.^.*X&X-X*X;.u A.-XS.X X R ' ' ) ' ' { k.M.M.M.h.' { M.M.l.l.l.xXxXxX",
"xXxXxXxXxXxXxXxXxXxXxXxXxXxX<.+.6.*X&X&X*XR.I.Q.-XR.&.d & $ $ $ 3 ' ] e.e.j.M.v.k.g.e.e.| | e.xXxXxX",
"xXxXxXxXxXxXxXxXxXxXxXxXxXxXu u 5.~.~.~.&X~.&X&X-X~.7.5.* X X   $ ^ ^ ^ ^ o.c.h.g.i.u.u.u.u.u.xXxXxX",
"xXxXxXxXxXxXxXxXxXxXxXxXxXxXxXxXxX6.V.E.U.U.U.^.-X*X*XQ.3.,.:   . o o o o + + + + : qXpXfXfXpXxXxXxX",
"xXxXxXxXxXxXxXxXxXxXxXxXxXxXxXxXxX4.6.K.K.V.7.P.Q.Q.Q.T.4.>.4 O O                 - zXkXkXkXxXxXxXxX",
"xXxXxXxXxXxXxXxXxXxXxXxXxXxXxXxXxXxXxX4.8.s i &.4.4.4.4.d i 9 > w               xXxXxXxXxXxXxXxXxXxX",
"xXxXxXxXxXxXxXxXxXxXxXxXxXxXxXxXxXxXxX4.4.d u 5.I.V.;.;.O.O.f 9 4 % %         xXxXxXxXxXxXxXxXxXxXxX",
"xXxXxXxXxXxXxXxXxXxXxXxXxXxXxXxXxXxXxXxXxXxXxXxX&XR.p p >.4.O.i q < 1 .   xXxXxXxXxXxXxXxXxXxXxXxXxX",
"xXxXxXxXxXxXxXxXxXxXxXxXxXxXxXxXxXxXxXxXxXxX, U -.#.P P 3.4.4.4.=.< 9 }.XXxXxXxXxXxXxXxXxXxXxXxXxXxX",
"xXxXxXxXxXxXxXxXxXxXxXxXxXxXxXxXxXxXxXxXxX, , m C V V D #.3.L.U.8.< U tXkXxXxXxXxXxXxXxXxXxXxXxXxXxX",
"xXxXxXxXxXxXxXxXxXxXxXxXxXxXxXxXxXxXxX] ' J B B V V V V A I =.6.3.7 a A.D.xXxXxXxXxXxXxXxXxXxXxXxXxX",
"xXxXxXxXxXxXxXxXxXxXxXxXxXxXxXxXxXxXxX/ _ S C V V V V V B B @.3.*.d &.4.7.xXxXxXxXxXxXxXxXxXxXxXxXxX",
"xXxXxXxXxXxXxXxXxXxXxXxXxXxXxXxXxXxXxX6 6 M C C C C V V m > q p %.K.K.*X~.L.4.4.xXxXxXxXxXxXxXxXxXxX",
"xXxXxXxXxXxXxXxXxXxXxXxXxXxXxXxXxXxXxXK F A C M N N N A 0 0 i i %.Y.Y.*X&XL.4.4.xXxXxXxXxXxXxXxXxXxX",
"xXxXxXxXxXxXxXxXxXxXxXxXxXxXxXxXxXxXxX' ) S B m > > > 6 _._.k q <.&X-X-X-XI.8.4.xXxXxXxXxXxXxXxXxXxX",
"xXxXxXxXxXxXxXxXxXxXxXxXxXxXxXxXxXxXxXS.S.q.q.9.j j j j _.)._.x n 1.1.K.P.3.O.O.xXxXxXxXxXxXxXxXxXxX",
"xXxXxXxXxXxXxXxXxXxXxXxXxXxXxXxXxXxXxX6X6X6X7X.X_._.).).'.[.`.).c ; 8 3.4.a u i xXxXxXxXxXxXxXxXxXxX",
"xXxXxXxXxXxXxXxXxXxXxXxXxXxXxXkXxXxXxX6X6XiXgX7XoX.X].`.`.).c g g 7 7 k s 8 @ # xXxXxXxXxXxXxXxXxXxX",
"xXxXxXxXxXxXxXxXxXxXxXxXxXxXsXzXpXxXxX+X+XzXkXtX6XOX[.[.)._.c 8 t i i u 7 - # # xXxXxXxXxXxXxXxXxXxX",
"xXxXxXxXxXxXxXxXxXxXxXxXxXxXl l 5.U.A.h h @X8X7X6XOX).)._._.oXiX@Xi 7 # . }.9X9XxXxXxXxXxXxXxXxXxXxX",
"xXxXxXxXxXxXxXxXxXxXxXxXxXxXu u O.4.3.h h  X;X;X@X@X{.{.{.{.0XkX8X<.l ; ; +XkXkXxXxXxXxXxXxXxXxXxXxX",
"xXxXxXxXxXxXxXxXxXxXxXxXxXxXxXxXxXX * !.~.T.Y.L.5.I.zXjXjXjXkXkXkXjXgXgXgXjXkXkXxXxXxXxXxXxXxXxXxXxX",
"xXxXxXxXxXxXxXxXxXxXxXxXxXxXxXxXxX  = <.1.;.&.,.4.$XlXkXkXkXkXkXkXkXkXkXkXkXkXxXxXxXxXxXxXxXxXxXxXxX",
"xXxXxXxXxXxXxXxXxXxXxXxXxXxXxXxXxXxXxX          xXxXxXxXxXxXxXxXxXxXxXxXxXxXxXxXxXxXxXxXxXxXxXxXxXxX",
"xXxXxXxXxXxXxXxXxXxXxXxXxXxXxXxXxXxXxXxXxXxXxXxXxXxXxXxXxXxXxXxXxXxXxXxXxXxXxXxXxXxXxXxXxXxXxXxXxXxX",
"xXxXxXxXxXxXxXxXxXxXxXxXxXxXxXxXxXxXxXxXxXxXxXxXxXxXxXxXxXxXxXxXxXxXxXxXxXxXxXxXxXxXxXxXxXxXxXxXxXxX",
"xXxXxXxXxXxXxXxXxXxXxXxXxXxXxXxXxXxXxXxXxXxXxXxXxXxXxXxXxXxXxXxXxXxXxXxXxXxXxXxXxXxXxXxXxXxXxXxXxXxX",
"xXxXxXxXxXxXxXxXxXxXxXxXxXxXxXxXxXxXxXxXxXxXxXxXxXxXxXxXxXxXxXxXxXxXxXxXxXxXxXxXxXxXxXxXxXxXxXxXxXxX"
};
