/* XPM */
static char *_673074212952[] = {
/* columns rows colors chars-per-pixel */
"50 50 200 2 ",
"   c #010303",
".  c #0C0A02",
"X  c #0A0706",
"o  c #140C07",
"O  c #1B1503",
"+  c #16100D",
"@  c #350E0C",
"#  c #271B15",
"$  c #2A1406",
"%  c #2E2018",
"&  c #3B291E",
"*  c #342504",
"=  c #3E2B20",
"-  c #3A322E",
";  c #393433",
":  c #4F1712",
">  c #52120E",
",  c #751A14",
"<  c #7B1A15",
"1  c #731614",
"2  c #6E1813",
"3  c #402D05",
"4  c #523A07",
"5  c #4D380F",
"6  c #7A2114",
"7  c #732219",
"8  c #7D2911",
"9  c #4B3A2C",
"0  c #47362A",
"q  c #5C3E2C",
"w  c #523826",
"e  c #403B3F",
"r  c #683A29",
"t  c #7E3023",
"y  c #762E36",
"u  c #664705",
"i  c #7C5605",
"p  c #735005",
"a  c #5D402E",
"s  c #5D4232",
"d  c #564332",
"f  c #654531",
"g  c #6D4A35",
"h  c #6A4A35",
"j  c #744C36",
"k  c #754F38",
"l  c #7C543C",
"z  c #73533D",
"x  c #67513C",
"c  c #3E3C42",
"v  c #5C5340",
"b  c #745845",
"n  c #674358",
"m  c #6A504C",
"M  c #7C614D",
"N  c #5F5F77",
"B  c #624F6D",
"V  c #63506E",
"C  c #675470",
"Z  c #727270",
"A  c #851A16",
"S  c #8C1A17",
"D  c #941A17",
"F  c #951A18",
"G  c #971A18",
"H  c #873A0F",
"J  c #8E2216",
"K  c #872517",
"L  c #972116",
"P  c #992518",
"I  c #853510",
"U  c #8C3916",
"Y  c #993813",
"T  c #A12F1A",
"R  c #A3321A",
"E  c #A73B1B",
"W  c #892C22",
"Q  c #9F3F30",
"!  c #923126",
"~  c #A6392E",
"^  c #8E470D",
"/  c #9D430F",
"(  c #9A4D0D",
")  c #845B05",
"_  c #96550B",
"`  c #995A0A",
"'  c #9C4A19",
"]  c #845D14",
"[  c #A54814",
"{  c #A65714",
"}  c #AC5814",
"|  c #8B620A",
" . c #8E6206",
".. c #936606",
"X. c #9D6208",
"o. c #966908",
"O. c #A26D06",
"+. c #A3650A",
"@. c #A86A0F",
"#. c #A67206",
"$. c #AA7506",
"%. c #AA7609",
"&. c #AD7909",
"*. c #A5750E",
"=. c #B27D0C",
"-. c #B1760E",
";. c #AE6910",
":. c #B0671D",
">. c #BC661E",
",. c #B36A19",
"<. c #A57A1B",
"1. c #AD7C15",
"2. c #BB7A18",
"3. c #91523A",
"4. c #855B41",
"5. c #8B5D42",
"6. c #946446",
"7. c #98694A",
"8. c #9E7558",
"9. c #A56C4C",
"0. c #B16F4F",
"q. c #A8714F",
"w. c #AB7452",
"e. c #A97957",
"r. c #B67B57",
"t. c #B6800E",
"y. c #B8820F",
"u. c #BB8411",
"i. c #BF8812",
"p. c #B38133",
"a. c #C48C15",
"s. c #C4831E",
"d. c #C89017",
"f. c #CB9219",
"g. c #D49A1E",
"h. c #D1971C",
"j. c #CB8320",
"k. c #D99E21",
"l. c #D69522",
"z. c #C08B35",
"x. c #DEA323",
"c. c #E0A523",
"v. c #BE835D",
"b. c #9D8571",
"n. c #BF8861",
"m. c #AC8562",
"M. c #C9875F",
"N. c #C2835C",
"B. c #CD8B62",
"V. c #C18A63",
"C. c #C4936B",
"Z. c #CA936A",
"A. c #CF986E",
"S. c #D89368",
"D. c #D79869",
"F. c #D19B71",
"G. c #DE9E71",
"H. c #C79271",
"J. c #CAA27F",
"K. c #D5A075",
"L. c #DDA87A",
"P. c #CFB379",
"I. c #DBA769",
"U. c #E5AC7D",
"Y. c #E2A577",
"T. c #535E83",
"R. c #5B6187",
"E. c #5A6997",
"W. c #5A6B9B",
"Q. c #586794",
"!. c #66759E",
"~. c #7B7E97",
"^. c #5A6FA1",
"/. c #5A72A5",
"(. c #5975AC",
"). c #7283A9",
"_. c #7489B0",
"`. c #AF8C89",
"'. c #BBA986",
"]. c #BBA897",
"[. c #ACA79D",
"{. c #AAABA4",
"}. c #B2B8BA",
"|. c #C49F87",
" X c #CFAF9C",
".X c #CCB29E",
"XX c #E6AE80",
"oX c #E6B082",
"OX c #EBB585",
"+X c #EFB887",
"@X c #F2BB89",
"#X c #D8BFB0",
"$X c #DBC595",
"%X c #ECC199",
"&X c #F1C9A6",
"*X c #C6CAC2",
"=X c #C2C6C0",
"-X c #F0E6D2",
";X c #FFFFFF",
":X c None",
/* pixels */
":X:X:X:X:X:X:X:X:X:X:X:X:X:X:X:X:X:X:X:X:X:X:X:X:X:X:X:X:X:X:X:X:X:X:X:X:X:X:X:X:X:X:X:X:X:X:X:X:X:X",
":X:X:X:X:X:X:X:X:X:X:X:X:X:X:X:X:X:X:X:X:X:X:X:X:X:X:X:X:X:X:X:X:X:X:X:X:X:X:X:X:X:X:X:X:X:X:X:X:X:X",
":X:X:X:X:X:X:X:X:X:X:X:X:X:X:X:X:X:X:X:X:X:X:X:X:X:X:X:X:X:X:X:X:X:X:X:X:X:X:X:X:X:X:X:X:X:X:X:X:X:X",
":X:X:X:X:X:X:X:X:X:X:X:X:X:X:X:X:X:X:X:X:X:X:X:X:X:X:X:X:X:X:X:X:X:X:X:X:X:X:X:X:X:X:X:X:X:X:X:X:X:X",
":X:X:X:X:X:X:X:X:X:X:X:X:X:X:X:X:X:X:Xx.x.x.x.a.#.t.x.g.t.#.:X:X:X:X:X:X:X:X:X:X:X:X:X:X:X:X:X:X:X:X",
":X:X:X:X:X:X:X:X:X:X:X:X:X:X:Xx.d.#.$.u.u.k.x.g.d.f.x.x.f.d.u.#.:X:X:X:X:X:X:X:X:X:X:X:X:X:X:X:X:X:X",
":X:X:X:X:X:X:X:X:X:X:X:X:X:Xx.c.d.$.$.#.$.h.x.x.x.x.x.x.x.c.i.#.#.:X:X:X:X:X:X:X:X:X:X:X:X:X:X:X:X:X",
":X:X:X:X:X:X:X:X:X:X:X:X#.$.f.x.x.h.g.g.l.x.x.x.x.g.t.y.g.x.i.#.` , , :X:X:X:X:X:X:X:X:X:X:X:X:X:X:X",
":X:X:X:X:X:X:X:X:X:X:X:X&.&.d.k.g.x.c.c.c.x.c.g.k.f.&.&.f.k.2.O.( , 1 :X:X:X:X:X:X:X:X:X:X:X:X:X:X:X",
":X:X:X:X:X:X:X:X:X:X#.&.g.x.u.$.a.x.x.x.x.c.c.a.#.y.k.k.t.&./ D J , , 1 , _ #.u.c.g.$.#.:X:X:X:X:X:X",
":X:X:X:X:X:X:X:X:X:X#.=.g.x.a.y.d.c.x.x.x.x.x.f.y.i.x.x.;.` Y G D < < I I @.u.a.x.k.u.y.=.:X:X:X:X:X",
":X:X:X:X:X:X:X:X:X:X#.&.k.x.x.x.x.x.x.x.x.x.x.x.x.x.x.k.R G G G G G L +.#.d.x.x.x.x.x.x.y.#.#.:X:X:X",
":X:X:X:X:X:X:X:X#.=.a.a.k.x.x.x.x.x.x.x.x.x.x.x.k.l.>.>.P A A A J / ( i.a.g.x.x.x.x.a.a.=.#.:X:X:X:X",
":X:X:X:X:X:X:X$.#.u.x.x.x.x.x.x.x.x.x.x.x.x.x.x.k.j.G D < , , , H #.=.k.x.x.x.x.x.g.#.#.:X:X:X:X:X:X",
":X:X:X:X:X:X:X#.#.u.x.x.u.y.g.x.c.c.c.c.c.a.y.>.[ ~ F D < 1 H ` @.f.f.x.x.a.y.y.y.*.* * :X:X:X:X:X:X",
":X:X:X:X:X:X:X#.#.y.x.h.=.$.d.x.g.l.l.l.h.-.O.Y G G D D 6 6 _ &.u.x.x.x.k.y.#.#.o.) . X :X:X:X:X:X:X",
":X:X:X:X:X:X:X:X:X:X&.t.g.g.i.&.} T R T T P P P F S < < _ +.u.k.k.x.k.y.t.$.$.p O O :X:X:X:X:X:X:X:X",
":X:X:X:X:X:X:X:X:X:XX.X.s.j.;.+./ G G G F F S P ~ Y U U %.=.a.l.g.g.f. .) ) ) 4     :X:X:X:X:X:X:X:X",
":X:X:X:X:X:X:X:X:X:X, 6 6 6 L L G G G G F < , } k.k.k.k.k.x.a.%.t.$...O   . . X     :X:X:X:X:X:X:X:X",
":X:X:X:X:X:X:X:X:X_ H H 6 , S G D A D Y Y ' ' 2.c.k.f.f.d.d.o.u ] p.p.w & +         :X:X:X:X:X:X:X:X",
":X:X:X:X:X:X:X#.#.#.$.X.6 , A G A , 8 #.#.h.x.x.x.h.$.*.#.$.3   0 OXXXr.w.&     :X:X:X:X:X:X:X:X:X:X",
":X:X:X:X:X:X:X$.#.=.a.a.,.:.>.>.>.,.,.a.d.i.i.i.i.u.#.*.P.$Xx   9 OXoXF.A.z :X:X  :X:X:X:X:X:X:X:X:X",
":X:X:X:X:X:X:X#.$.u.x.x.x.x.c.x.x.x.x.x.x.&.#.#.#.O.*.t.-X;XZ   9 OXOXOXOX:X:X:X    :X:X:X:X:X:X:X:X",
":X:X:X:X:Xx.x.k.h.d.t.u.x.x.x.x.f.y.t.y.t.&.%.u O w A.I.@X&XJ.m.C.OXoXG.G.:X:X:X:X:X:X:X:X:X:X:X:X:X",
":X:X:X:X:Xk.k.k.k.d.&.=.g.c.x.g.a.#.#.........4 + 9 U.@XU.U.@X@X+XOXoXB.V.:X:X:X:X:X:X:X:X:X:X:X:X:X",
":X:X:X:X:X&.&.&.&.i.x.g.c.c.i.&.%.$. .O o o . w 6.e.U.%X@X+XOX+XOXOXL.4.j :X:X:X:X:X:X:X:X:X:X:X:X:X",
":X:X:X:X:X#.#.#.#.*.<.<.<.<.| i i i u X   O % z v.C.U.U.U.Y.U.U.Y.L.F.l f :X:X:X:X:X:X:X:X:X:X:X:X:X",
":X:X:X:X:X:X:X:X:X:XX X X . X   X   X   X b q.C.OXOX%XU.I.D.D.D.B.q.w.:X:X:X:X:X:X:X:X:X:X:X:X:X:X:X",
":X:X:X:X:X:X:X:X:X:X                X $ @ j 5.r.A.A.A.A.0.q.r.N.H. X.X:X:X:X:X:X:X:X:X:X:X:X:X:X:X:X",
":X:X:X:X:X:X:X:X:X:X:X:X            o 2 , r f 4.w.w.q.9.k f 5.q.|.;X;X:X:X:X:X:X:X:X:X:X:X:X:X:X:X:X",
":X:X:X:X:X:X:X:X:X:X:X:X:X:X    o > > r r 3.6.5.l 7.F.F.:X:X:X:X#X;X;X:X:X:X:X:X:X:X:X:X:X:X:X:X:X:X",
":X:X:X:X:X:X:X:X:X:X:X:X:X:X    @ < 7 r j 7.w.5.a 4.U.oX:X:X:X:X:X;X;X:X:X:X:X:X:X:X:X:X:X:X:X:X:X:X",
":X:X:X:X:X:X:X:X:X:X:X:X:X:X:X:X> < W r.N.r.w.3.S P ~ ~ 6 , :X:X:X;X;X:X:X:X:X:X:X:X:X:X:X:X:X:X:X:X",
":X:X:X:X:X:X:X:X:X:X:X:X:X:X:X:Xt 7 W V.B.0.9.Q G G F F A < I :X:X;X;X:X:X:X:X:X:X:X:X:X:X:X:X:X:X:X",
":X:X:X:X:X:X:X:X:X:X:X:X:X:Xw.w.5.a j w.w.Q G L F F F F D F ( #.1.:X:X;X;X:X:X:X:X:X:X:X:X:X:X:X:X:X",
":X:X:X:X:X:X:X:X:X:X:X:X:X:Xv.n.q.5.5.6.6.J S D F F F F G D Y _ _ :X:X;X;X;X:X:X:X:X:X:X:X:X:X:X:X:X",
":X:X:X:X:X:X:X:X:X:X:X:Xw.w.K.OXL.B.N.j f 7 1 S G F F F F F A , , :X:X;X;X;X;X;X:X:X:X:X:X:X:X:X:X:X",
":X:X:X:X:X:X:X:X:X:X:X:Xw.w.K.+XXXL.Z.g f n n y S A A A F F U ^ ^ :X:X:X;X;X;X;X:X:X:X:X:X:X:X:X:X:X",
":X:X:X:X:X:X:X:X:X:X:X:Xw.w.K.OXOXOXK.z f N ^.n , , , , F F ' &.$.:X:X:X:X;X;X;X:X:X:X:X:X:X:X:X:X:X",
":X:X:X:X:X:X:X:X:X:X:X:Xl l e.V.8.M m N N W.(.R.V V V C `.`.'.'.'.:X:X:X:X:X:X:X;X;X:X:X:X:X:X:X:X:X",
":X:X:X:X:X:X:X:X:X:X:X:Xq q 5.q.l - c Q.Q./.(./.W.W.!.!.}.*X*X*X*X:X:X:X:X:X:X:X;X;X:X:X:X:X:X:X:X:X",
":X:X:X:X:X:X:X:X:X:X:X:Xo + 9 k h s d ; c T.W.^.(._.}.}.:X:X*X*X*X:X:X:X:X:X:X:X:X:X:X:X:X:X:X:X:X:X",
":X:X:X:X:X:X:X:X:X:X:X:X    & w q f f - ; T.W.^.(._.=X*X:X:X{.{.[.:X:X:X:X:X:X:X:X:X:X:X:X:X:X:X:X:X",
":X:X:X:X:X:X:X:X:X:X:X:X:X:XX   % f f :X:XE.E.E.Q.).=X*X*X*XZ ; m S.B.k f :X:X:X:X:X:X:X:X:X:X:X:X:X",
":X:X:X:X:X:X:X:X:X:X:X:X:X:X:X  # h f :X:X:XE.W.Q.~.].]..X.Xb.M 4.4.4.h f :X:X:X:X:X:X:X:X:X:X:X:X:X",
":X:X:X:X:X:X:X:X:X:X:X:X:X:X:X:X:X:X:X:X:X:X:X:X:X:Xw.w.B.S.Y.@Xm.    :X:X:X:X:X:X:X:X:X:X:X:X:X:X:X",
":X:X:X:X:X:X:X:X:X:X:X:X:X:X:X:X:X:X:X:X:X:X:X:X:X:X:X:Xf q f x d :X:X:X:X:X:X:X:X:X:X:X:X:X:X:X:X:X",
":X:X:X:X:X:X:X:X:X:X:X:X:X:X:X:X:X:X:X:X:X:X:X:X:X:X:X:X          :X:X:X:X:X:X:X:X:X:X:X:X:X:X:X:X:X",
":X:X:X:X:X:X:X:X:X:X:X:X:X:X:X:X:X:X:X:X:X:X:X:X:X:X:X:X:X:X:X:X:X:X:X:X:X:X:X:X:X:X:X:X:X:X:X:X:X:X",
":X:X:X:X:X:X:X:X:X:X:X:X:X:X:X:X:X:X:X:X:X:X:X:X:X:X:X:X:X:X:X:X:X:X:X:X:X:X:X:X:X:X:X:X:X:X:X:X:X:X"
};
