/* XPM */
static char *_673074219770[] = {
/* columns rows colors chars-per-pixel */
"50 50 202 2 ",
"   c #010103",
".  c #0C0305",
"X  c #03070B",
"o  c #0C0A09",
"O  c #0D0907",
"+  c #110D0B",
"@  c #1B0807",
"#  c #1A130E",
"$  c #1A1614",
"%  c #121A1D",
"&  c #000F17",
"*  c #2D0A09",
"=  c #260808",
"-  c #360D0B",
";  c #2A1F04",
":  c #271D05",
">  c #28201B",
",  c #3C291F",
"<  c #232323",
"1  c #252728",
"2  c #2D2827",
"3  c #2A3236",
"4  c #393331",
"5  c #343637",
"6  c #460F0D",
"7  c #49120E",
"8  c #551411",
"9  c #4A1511",
"0  c #631511",
"q  c #691812",
"w  c #741A14",
"e  c #7A1914",
"r  c #761A16",
"t  c #6F150E",
"y  c #563E0B",
"u  c #51390F",
"i  c #7D2415",
"p  c #73251B",
"a  c #5B3E2C",
"s  c #752C22",
"d  c #793325",
"f  c #6E3937",
"g  c #57410F",
"h  c #624912",
"j  c #5F402E",
"k  c #5F4130",
"l  c #63422E",
"z  c #68462C",
"x  c #654531",
"c  c #6C4A35",
"v  c #6C4C37",
"b  c #724E38",
"n  c #744B35",
"m  c #7C543C",
"M  c #7F583E",
"N  c #6C3846",
"B  c #763644",
"V  c #4B4D4D",
"C  c #775A49",
"Z  c #68445A",
"A  c #777370",
"S  c #841A16",
"D  c #8C1917",
"F  c #861C18",
"G  c #941916",
"H  c #961A18",
"J  c #981917",
"K  c #982217",
"L  c #9B2519",
"P  c #942816",
"I  c #8A3516",
"U  c #8D3918",
"Y  c #9C3612",
"T  c #9A3716",
"R  c #A2351A",
"E  c #8D450E",
"W  c #98560C",
"Q  c #835A1D",
"!  c #984C12",
"~  c #AD451B",
"^  c #A35A16",
"/  c #8D6817",
"(  c #98680C",
")  c #A16F05",
"_  c #A6670B",
"`  c #A77306",
"'  c #A97406",
"]  c #AB7709",
"[  c #AD790A",
"{  c #AC7907",
"}  c #B37D0C",
"|  c #B97918",
" . c #B37118",
".. c #83553C",
"X. c #83593F",
"o. c #8D553C",
"O. c #8B5230",
"+. c #C07B1F",
"@. c #833848",
"#. c #833748",
"$. c #8C5940",
"%. c #8F6044",
"&. c #876048",
"*. c #9B694A",
"=. c #946447",
"-. c #9B6E52",
";. c #987558",
":. c #846A5B",
">. c #A46F4F",
",. c #A8714F",
"<. c #AA7351",
"1. c #A47556",
"2. c #B47955",
"3. c #BA7E59",
"4. c #B26A4E",
"5. c #927762",
"6. c #A07F62",
"7. c #B6810E",
"8. c #B9840F",
"9. c #BD8611",
"0. c #BF8813",
"q. c #B48218",
"w. c #BB8D31",
"e. c #C38C15",
"r. c #C88A1B",
"t. c #CB9319",
"y. c #D2971D",
"u. c #D59B1E",
"i. c #CC8B20",
"p. c #D38E22",
"a. c #D99D22",
"s. c #C6942B",
"d. c #DEA323",
"f. c #E1A524",
"g. c #BE815B",
"h. c #AC8264",
"j. c #B58863",
"k. c #C4845D",
"l. c #C8885F",
"z. c #C39E4E",
"x. c #CD8C62",
"c. c #D38F65",
"v. c #CC9369",
"b. c #C5956D",
"n. c #D69166",
"m. c #D89267",
"M. c #D99569",
"N. c #D49D74",
"B. c #D69E78",
"V. c #CC9674",
"C. c #D7A479",
"Z. c #DDA27E",
"A. c #D2B67C",
"S. c #E5AB7D",
"D. c #E2A375",
"F. c #5A6997",
"G. c #5B6B9A",
"H. c #5A6794",
"J. c #63719B",
"K. c #5A71A4",
"L. c #5B77AD",
"P. c #5B79B0",
"I. c #5B6EA0",
"U. c #8E9AB0",
"Y. c #99A5B6",
"T. c #A4AEB9",
"R. c #A5ACB4",
"E. c #BBBBB9",
"W. c #A4B0BC",
"Q. c #C29C84",
"!. c #C7A696",
"~. c #CDAF8A",
"^. c #ECB484",
"/. c #EFB887",
"(. c #EDB888",
"). c #EAB68B",
"_. c #D7BCBC",
"`. c #C4B8B0",
"'. c #EEC199",
"]. c #CBC5BB",
"[. c #E6D8B6",
"{. c #ADB8C5",
"}. c #B7C0CE",
"|. c #BDC8D7",
" X c #C6C8C3",
".X c #D5CDC8",
"XX c #D4D4D3",
"oX c #CCD1D9",
"OX c #E6DECF",
"+X c #EDE6D8",
"@X c #CBD5E7",
"#X c #CDD6E8",
"$X c #D5D9E5",
"%X c #DDE0E3",
"&X c #ECECEB",
"*X c #EAE8E4",
"=X c #F1EDEB",
"-X c #F1F1F1",
";X c #FDF9F6",
":X c #FFFFFF",
">X c #F8F3ED",
",X c None",
/* pixels */
",X,X,X,X,X,X,X,X,X,X,X,X,X,X,X,X,X,X,X,X,X,X,X,X,X,X,X,X,X,X,X,X,X,X,X,X,X,X,X,X,X,X,X,X,X,X,X,X,X,X",
",X,X,X,X,X,X,X,X,X,X,X,X,X,X,X,X,X,X,X,X,X,X,X,X,X,X,X,X,X,X,X,X,X,X,X,X,X,X,X,X,X,X,X,X,X,X,X,X,X,X",
",X,X,X,X,X,X,X,X,X,X,X,X,X,X,X,X,X,X,X,X,X,X,X,X,X,X,X,X,X,X,X,X,X,X,X,X,X,X,X,X,X,X,X,X,X,X,X,X,X,X",
",X,X,X,X,X,X,X,X,X,X,X,X,X,X,X,X,X,X,X,X,X,X,X,X,X,X,X,X,X,X,X,X,X,X,X,X,X,X,X,X,X,X,X,X,X,X,X,X,X,X",
",X,X,X,X,X,X,X,X,X,X,X,X,X,X,X,X,X` ` u.d.0.` 7.d.d.d.d.9.` ` ,X,X,X,X,X,X,X,X,X,X,X,X,X,X,X,X,X,X,X",
",X,X,X,X,X,X,X,X,X,X,X,X,X,X,X` } t.t.d.d.u.t.y.d.d.d.d.y.t.0.` ' ,X,X,X,X,X,X,X,X,X,X,X,X,X,X,X,X,X",
",X,X,X,X,X,X,X,X,X,X,X,X,X,X` ' } a.d.d.d.d.d.d.d.d.d.d.d.f.t.' ' ,X,X,X,X,X,X,X,X,X,X,X,X,X,X,X,X,X",
",X,X,X,X,X,X,X,X,X,X,X,X` ` 0.u.t.} } a.d.d.d.d.d.d.d.d.d.d.a.u.t.[ ` ,X,X,X,X,X,X,X,X,X,X,X,X,X,X,X",
",X,X,X,X,X,X,X,X,X,X,X,X} } r.f.u.[ } t.a.a.d.d.d.d.d.d.d.d.d.f.u.[ ' ,X,X,X,X,X,X,X,X,X,X,X,X,X,X,X",
",X,X,X,X,X,X,X,X,X,X,X,Xa.a.d.d.d.d.a.} ' r.f.d.d.d.d.d.d.d.d.d.u.} ' [.:X,X,X,X,X,X,X,X,X,X,X,X,X,X",
",X,X,X,X,X,X,X,X,X,X,X,X .+.r.t.u.d.d.0.7.t.f.d.d.d.d.d.d.d.d.t.e.W W Q._.!.,X,X,X,X,X,X,X,X,X,X,X,X",
",X,X,X,X,X,X,X,Xf.i.i r w w E ` } d.d.d.d.d.d.d.d.d.f.d.d.d.t.` ) i w w r E ` w.;X:X,X,X,X,X,X,X,X,X",
",X,X,X,X,X,X,Xe.f.i.i r S S I E ^ d.d.d.d.d.d.d.d.d.e.e.e.e. .E U S S e w ! e.s.A.~.+X,X,X,X,X,X,X,X",
",X,X,X,X,X' ` 0.f.i.i r D J S w I a.d.d.d.a.a.f.d.a.[ ` ` ` W w e G J i w ^ d.y.' [ OX:X,X,X,X,X,X,X",
",X,X,X` ` e.t.u.d.a.| +.R H G D K ~ ~ ~ ~ ~ ~ ~ ~ ~ T Y Y Y P F G J J ! W } d.d.t.t.z.z.,X,X,X,X,X' ",
",X,X,X` ` t.f.f.d.d.d.a.~ K K K G G D G G G G G D G G G G G G K L L J _ { e.d.f.f.d.7.{ ,X,X,X,X,X` ",
",X,X,X` ` t.f.d.d.u.7.{ r.p.| ) W r e G H S e e e e r r e e I _ _ r.p.u.u.a.d.d.d.d.a.u.,X,X,X,X,X` ",
",X,X,X` ' y.d.d.d.u.7.7.y.d.t.7._ U U R R T I I I I I I I I ! [ 8.a.f.f.f.a.u.a.d.d.d.d.,X,X,X,X,X` ",
",X,X,X,X,Xd.d.d.d.d.a.a.d.d.d.d.a.a.a.a.a.a.a.a.a.a.a.a.a.a.a.a.d.d.d.d.f.e.' } d.f.,X,X,X,X,X,X,X,X",
",X,X,X,X,X,Xd.d.d.a.t.t.t.t.u.d.d.d.d.d.d.d.d.d.a.d.a.f.a.d.f.f.d.t.t.t.t.e.0.} / / ,X,X,X,X,X,X,X,X",
",X,X,X,X,X,X,X,Xf.u.{ ' ` ` 0.d.d.d.d.d.f.d.d.d.d.d.f.a.f.f.a.f.u.[ ` ' ` 0.f.q.O   ,X,X,X,X,X,X,X,X",
",X,X,X,X,X,X,X,Xh h Q Q 8.e.0.0.0.0.0.0.0.0.0.e.e.9.e.e.e.9.0.e.9.Q Q y u y h g ,X,X,X,X,X,X,X,X,X,X",
",X,X,X,X,X,X,X,X  o x v w.a.e.) ` ` ) ) ) ) ) ) ) ) ) ) ) ) ) ) ( z j $     X X ,X,X,X,X,X,X,X,X,X,X",
",X,X,X,X,X,X,X,X,X,X.X.Xh.O.u : : : : ; ; ; ; ; ; : ; ; ; ; ; : : # # o   V  XE.,X,X,X,X,X,X,X,X,X,X",
",X,X,X,X,X,X,X,X,X,X=X*X:.x , o + . .     . .             . . + + O o o + A =X=X,X,X,X,X,X,X,X,X,X,X",
",X,X,X,X,X,X,X,X,X,XC C v x M *.o.q 0 O   - q 7         6 q d *.%.j a X.=.&.C C ,X,X,X,X,X,X,X,X,X,X",
",X,X,X,X,X,X,X,X,X,Xx x m $.M M n e q * @ 8 F 0 = = = @ 8 r d M M m b >.g.*...M ,X,X,X,X,X,X,X,X,X,X",
",X,X,X,X,X,X,X,X<.>.x x 2.n.v   @ w w w w S H H G D w w w r 7   $ *.<.x.n.c.n.g.c x ,X,X,X,X,X,X,X,X",
",X,X,X,X,X,X,X<.<.,.=.*.c.D.$.* 7 e F S F G H H H H S S S S q - 9 M %.k.M.m.M.g.c x ,X,X,X,X,X,X,X,X",
",X,X,X,X,X<.<.<.,.2.c.M.S.).4.e S G J G H H H H H H J H G J D w p l x 2.m.c.m.g.c l ,X,X,X,X,X,X,X:X",
",X,X,X<.<.v.N.v.x.g.3.3.1.-.O.G D H H H H H H H H H J H H H D D F p s ..%.%.%.;.`.`.,X,X,X:X:X:X:X:X",
",X,X,X,.,.N./.S.M.x.<.>.c a d H H H H H H H H H H H H H H H H H G e w f b x l :.;X:X,X,X:X:X:X:X:X:X",
",X,X,Xb b b./.^.S.C.M v > + 8 J G J H H H H H H H H H H H H H H G e r !.OX X,X,X,X,X,X,X:X:X:X:X:X:X",
",X,X,Xx x j.C.C.C.b.b l #   7 G G G H H H H G G H H H H J J H G D w p _.:X:X,X,X,X,X,X,X:X:X:X:X:X:X",
",X,X,X,X,Xb b b b b ,X,X,X,Xt e e J G J J S e S J J J J J J D w r ,X,X,X,X,X:X:X:X:X:X:X:X:X:X,X,X:X",
",X,X,X,X,X,Xx x l l ,X,X,X,XZ N B #.#.@.@.B f f #.#.#.#.#.#.B N N ,X,X,X,X,X:X:X:X:X:X:X:X:X:X,X,X:X",
",X,X,X,X,X,X,X,X,X,X,X,XF.F.I.L.P.L.L.L.P.G.H.G.L.L.L.L.L.P.P.L.P.G.H.,X,X,X,X,X,X,X:X:X,X,X,X,X,X,X",
",X,X,X,X,X,X,X,X,X,X,X,XF.F.K.P.P.P.P.P.P.L.K.K.K.K.P.P.P.P.P.P.L.F.G.,X,X,X,X,X,X,X,X:X,X,X,X,X,X,X",
",X,X,X,X,X,X,X,X,X,X,X,XG.G.K.P.P.P.P.P.P.P.P.L.F.F.L.P.P.P.P.P.L.G.F.,X,X,X,X,X,X,X,X,X,X,X,X,X,X,X",
",X,X,X,X,X,X,X,X,X,X:X:X$XoX}.T.{.#X#X#X#X}.T.U.F.J.Y.T.|.@X@X@X@XR.R.%X:X,X,X,X,X,X,X,X,X,X,X,X,X,X",
",X,X,X,X,X,X,X,X,X,X:X:X:X:X*X XXX&X&X&X&XXX XR.G.J.E._.*X;X;X;X>X].].=X:X:X,X,X,X,X,X,X,X,X,X,X,X,X",
",X,X,X,X,X,X,X,X,X,X,X,X:X:X:X;X X3 1 1 < V ,X,X,X,X1.6.V.B.^.'.).B.N.,X,X,X,X,X,X,X,X,X,X,X,X,X,X,X",
",X,X,X,X,X,X,X,X,X,X,X,X:X:X:X:XXX5 5 5 5 ,X,X,X,X,X2.2.x.M.C.^.^.x.l.,X,X,X,X,X,X,X,X,X,X,X,X,X,X,X",
",X,X,X,X,X,X,X,X,X,X,X,X:X:X:X:X:X-X&X-X=X,X,X,X,X,Xm.c.S./.(.(.^.2.<.,X,X,X,X,X,X,X,X,X,X,X,X,X,X,X",
",X,X,X,X,X,X,X,X,X,X,X,X,X:X:X:X:X:X:X:X:X,X,X,X,X,X-.-.6.h.6.;.5.!.!.,X,X,X,X,X,X,X,X,X,X,X,X,X,X,X",
",X,X,X,X,X,X,X,X,X,X,X,X,X,X,X:X:X:X:X:X:X,X,X,X,X,X4 4 4 4 1 & 3 &X:X,X,X,X,X,X,X,X,X,X,X,X,X,X,X,X",
",X,X,X,X,X,X,X,X,X,X,X,X,X,X,X,X,X,X,X,X,X,X,X,X,X,X$ $ 2 4 < X % ,X,X,X,X,X,X,X,X,X,X,X,X,X,X,X,X,X",
",X,X,X,X,X,X,X,X,X,X,X,X,X,X,X,X,X,X,X,X,X,X,X,X,X,X    > 4 <     ,X,X,X,X,X,X,X,X,X,X,X,X,X,X,X,X,X",
",X,X,X,X,X,X,X,X,X,X,X,X,X,X,X,X,X,X,X,X,X,X,X,X,X,X,X,X,X,X,X,X,X,X,X,X,X,X,X,X,X,X,X,X,X,X,X,X,X,X",
",X,X,X,X,X,X,X,X,X,X,X,X,X,X,X,X,X,X,X,X,X,X,X,X,X,X,X,X,X,X,X,X,X,X,X,X,X,X,X,X,X,X,X,X,X,X,X,X,X,X"
};
