/* XPM */
static char *tile0001672993613[] = {
/* columns rows colors chars-per-pixel */
"50 50 209 2 ",
"   c None",
".  c #010203",
"X  c #080504",
"o  c #0C0C0A",
"O  c #0C0A04",
"+  c #130E0C",
"@  c #160704",
"#  c #18120A",
"$  c #1B1615",
"%  c #251A05",
"&  c #261B15",
"*  c #36120E",
"=  c #342307",
"-  c #2E231B",
";  c #34271D",
":  c #2C2008",
">  c #1F2121",
",  c #282827",
"<  c #3B3734",
"1  c #352A20",
"2  c #59120F",
"3  c #521612",
"4  c #6B1712",
"5  c #751A14",
"6  c #7B1A14",
"7  c #7B1514",
"8  c #78170F",
"9  c #483406",
"0  c #553C04",
"q  c #422910",
"w  c #7E2A17",
"e  c #7F2A0F",
"r  c #4C3628",
"t  c #73282B",
"y  c #702F36",
"u  c #57410D",
"i  c #5B4410",
"p  c #785614",
"a  c #684B0B",
"s  c #5B4534",
"d  c #574739",
"f  c #5F402E",
"g  c #64422F",
"h  c #644430",
"j  c #684632",
"k  c #6C4934",
"l  c #724D37",
"z  c #7A4839",
"x  c #6A523E",
"c  c #7C553C",
"v  c #79533B",
"b  c #725725",
"n  c #6D3845",
"m  c #753744",
"M  c #6C3F52",
"N  c #494747",
"B  c #785A42",
"V  c #7F6148",
"C  c #645677",
"Z  c #696965",
"A  c #831A15",
"S  c #891B17",
"D  c #951B16",
"F  c #951A18",
"G  c #981A18",
"H  c #852819",
"J  c #992516",
"K  c #9C3517",
"L  c #8E3A18",
"P  c #A12E1A",
"I  c #A5361A",
"U  c #A43919",
"Y  c #822C22",
"T  c #882823",
"R  c #883628",
"E  c #855A06",
"W  c #9A4519",
"Q  c #815815",
"!  c #A35A0B",
"~  c #B14D1C",
"^  c #AB521A",
"/  c #8C6308",
"(  c #9C6B05",
")  c #896516",
"_  c #916B17",
"`  c #997219",
"'  c #A36E06",
"]  c #A36009",
"[  c #A67205",
"{  c #A97406",
"}  c #A4720A",
"|  c #AC7709",
" . c #B17C0B",
".. c #B7631D",
"X. c #AA7B17",
"o. c #B87419",
"O. c #AA601C",
"+. c #944634",
"@. c #82593F",
"#. c #97513A",
"$. c #C4721F",
"%. c #823848",
"&. c #823543",
"*. c #825B41",
"=. c #885C41",
"-. c #9D5C42",
";. c #A85F46",
":. c #88654A",
">. c #976749",
",. c #8C6E54",
"<. c #967558",
"1. c #A56D4D",
"2. c #A9714F",
"3. c #A6704F",
"4. c #AA7351",
"5. c #AB7B59",
"6. c #B27955",
"7. c #B47B57",
"8. c #B7810E",
"9. c #B9820E",
"0. c #BD8512",
"q. c #BF8813",
"w. c #B2831D",
"e. c #C38B15",
"r. c #CB9319",
"t. c #C89017",
"y. c #D0961C",
"u. c #D49A1E",
"i. c #CA8D20",
"p. c #DB9D22",
"a. c #D69222",
"s. c #CA9529",
"d. c #DEA323",
"f. c #E1A524",
"g. c #E2A924",
"h. c #BE825C",
"j. c #B3825E",
"k. c #BE994A",
"l. c #87827E",
"z. c #AB8462",
"x. c #B38561",
"c. c #B98B66",
"v. c #BB916B",
"b. c #B28E74",
"n. c #B8937A",
"m. c #C2845D",
"M. c #CB855D",
"N. c #C48D65",
"B. c #CC8A62",
"V. c #D18D64",
"C. c #C5936B",
"Z. c #CC946B",
"A. c #D69166",
"S. c #DB9A6E",
"D. c #D4956A",
"F. c #CB9B72",
"G. c #C69971",
"H. c #DC9E72",
"J. c #DBA67A",
"K. c #DAA579",
"L. c #CFAC64",
"P. c #E1A376",
"I. c #E4AC7D",
"U. c #E8AE7F",
"Y. c #5A6795",
"T. c #5A6997",
"R. c #5A6B9B",
"E. c #69769C",
"W. c #5A71A5",
"Q. c #5976AE",
"!. c #5A7AB3",
"~. c #5C6FA1",
"^. c #687AA5",
"/. c #959796",
"(. c #8D8581",
"). c #A5968A",
"_. c #929BAE",
"`. c #8995AD",
"'. c #95A3B9",
"]. c #8FA0B8",
"[. c #B7BAB6",
"{. c #A9ACA5",
"}. c #D4BA84",
"|. c #D7B295",
" X c #D5A88C",
".X c #E3AF81",
"XX c #E8AF80",
"oX c #E6B182",
"OX c #ECB585",
"+X c #EFB887",
"@X c #EFB988",
"#X c #F1B988",
"$X c #E5B799",
"%X c #C4C6BD",
"&X c #E9C3A3",
"*X c #F2CBA9",
"=X c #EBD7B8",
"-X c #A6B5CF",
";X c #ADBCD8",
":X c #AAB9D5",
">X c #A0ACC4",
",X c #C8CAC3",
"<X c #D3D5CE",
"1X c #F0DECC",
"2X c #E9E7DB",
"3X c #D6D9E0",
"4X c #F5F4F2",
"5X c #FFFEFE",
"6X c #EAEAE7",
/* pixels */
"                                                                                                    ",
"                                                                                                    ",
"                                    [ [ 8.d.p. .[ r.d.d.d.u.| [                                     ",
"                                    9.q.t.d.p.e.q.u.d.d.d.p.e.e. .                                  ",
"                                [ [ t.d.d.d.d.d.f.d.d.f.d.d.d.d.9.[ [                               ",
"                            [ | t.r.e.0.o.~ ~ ~ ~ ~ ~ ~ ~ ..p.d.y.r.e.[ {                           ",
"                            } | r.p.0.' ! D D D D D D D D P a.p.u.p.e.' }                           ",
"                            e e I U K J K ] ] ] ] ] ] ] ] ! U I I P K H #.4X5X                      ",
"                            H H A 7 J I W  . . . . .8.} / E U P P P H 2 R 2X2X                      ",
"                  [ [ [ [ 8.u.y.= X p p.p.d.d.d.d.d.d._ O : t.p.p.f.p X & X.X.| [ }.5X5X            ",
"                  9.9. .[ [ ` _ # . i ` ` ` ` ` ` ` ` a . # ) ` ` ` u . % ( [  .9.L.=X=X            ",
"              [ [ y.f.e.8.p O X . . . . . X . . . . . . . . . . . . . . % ( { u.d.e.[ k.5X5X        ",
"            | e.e.e.e./ 0 = X . . . . . . . . . . . . . . . . . . . . . O 0 u | e.e.e.s.}.}.        ",
"          [ | d.d.8.[ u . X . . . . . . . . . . . . . . . . . . . . . . . . X p { e.d.y.{ [         ",
"          [  .d.d.a = # . . . . . . . . ; 5.,.$ . . X . . . . . . . . . . . X E | e.d.d.r.r.        ",
"          [  .p.p.= O . . . . . . . . . r +XJ.& . + # # $ + X X . . . . . . . p ( q.d.d.f.d.        ",
"              d.p.} / 9 . . . . . . X . r @XJ.- . V F.G.F.z.# . X . . . . . . O # ) f.f.            ",
"              d.d.0. .u . . . . . X $ , N v.z.r - z.@XJ.v.z.< , + . X . o - - o . i w.w.            ",
"                  d.f.p . . . . . . Z ,X(.+ $ C.I.oX+X<.O , {.[.< . . . & K.K.- . . O O             ",
"                  ) ) b s s s s s s /.2X/.. $ F.+XOX+X<.. , ,X<XN . & s B OX.X1 . . .               ",
"                  . . B @XOXOXOXOXOX1X5X[.. $ G.+XOX+X<.. > 6X5XN . B OXOXoX.X; .                   ",
"                          J.C.Z.I.OX*X=X|.:.,.J.OXOXOXG.:.,.).).<.:.<.C.z.x B (./.                  ",
"                            2.4.J.OXOXoXOX@X@XOXOXOX+XOX#XJ.l h C.@XZ.4.*.X o ,X5X                  ",
"                        j j v c 6.h.Z.S.P.OXOXH.S.D.S.P.@XU.m.7.h.c.1.v k r r                       ",
"                      k j j l l :.>.4.M.V.P.H.V.V.V.V.D.J.H.B.M.1.>.*.l l j j                       ",
"                  2.4.=.g c m.h.; + 3 T T t R 1.6.6.4.-.T Y w H * @ s B.7.j j >.4.                  ",
"                  5.2.>.@.>.S.Z.q @ 2 6 7 6 6 -.#.-.>.+.6 7 7 6 * @ l H.B.=.*.1.4.4.                ",
"              4.2.2.2.h.V.S.OXI.R 7 A F F F F w w 4 5 A F F F F 7 4 ;.@X.XA.V.7.4.4.4.4.            ",
"            7.C.C.h.h.h.m.h.j.j.T S F F F F F 6 5 L O.W F F F F A A +.x.j.m.m.m.7.N.Z.N.            ",
". .       4.7.oXOXH.A.h.5.>.k y T G F F F F F 5 5 o.d.$.F G F G F D Y j l 3.4.B.A.P.OXK.4.4.        ",
". .       c >.oXOXI.P.j.c k & & A F F F F F F 6 5 L W K F F F F D D 4 & ; c @.Z.I.XXOXF.@.c         ",
". .       s c K.I.U.U.j.h r . . 7 F F F F F F 6 5 5 w S G F G F D D 3 . # y k F.oX.XoXZ.j j         ",
"              B =.*.B @.        8 7 S F F F F 5 5 O.i...F F F G S 7 4         B *.*.*.B             ",
"              j h h j           y t H F F F F 6 5 O.a...F F D S t t y         j h h h h             ",
"                            T.T.~.W.M 8 6 F F 7 8 D P G D D 7 8 C Q.R.T.T.                          ",
"                            T.T.Q.!.C n m %.&.n n &.&.&.%.%.n n Y.!.W.T.T.                          ",
"                            T.T.Q.Q.Q.Q.Q.!.Q.Q.Q.R.Y.R.Q.Q.Q.Q.Q.Q.W.Y.Y.                          ",
"                        5X3X_._.-X:X:X;X-X].`.^.W.R.Y.E.].'.:X:X;X;X>X_.'.4X                        ",
"                        5X4X,X,X4X5X5X5X6X,X%XE.T.T.Y.`.,X<X4X5X5X5X6X%X<X5X5X                      ",
"                            b.n.&X*X&X$X Xb.b.        (.b.n.$X$X*X*X Xb.n.                          ",
"                            2.4.J.OXK.A.M.2.2.          2.6.A.A.I.OXD.2.2.                          ",
"                            4.6.I.@XU.OXK.2.4.          2.7.I.oXOX#XF.4.4.                          ",
"                            4.4.c.v.v.v.c.4.2.          4.4.v.v.v.v.x.4.4.                          ",
"                                o o o o +                   o o o O +                               ",
"                                . . . .                     . . . .                                 ",
"                                                                                                    ",
"                                                                                                    ",
"                                                                                                    ",
"                                                                                                    ",
"                                                                                                    "
};
