/* XPM */
static char *wall11672993614[] = {
/* columns rows colors chars-per-pixel */
"50 50 49 1 ",
"  c #8C6A4E",
". c #96724E",
"X c #9B754E",
"o c #9E784F",
"O c #8E6C52",
"+ c #926E52",
"@ c #957254",
"# c #9A7654",
"$ c #9E7955",
"% c #97775D",
"& c #9A765A",
"* c #9D7A5B",
"= c #A37D55",
"- c #A27E5C",
"; c #9D7B60",
": c #A27E60",
"> c #A68056",
", c #A98257",
"< c #A6815C",
"1 c #AB845B",
"2 c #AF885D",
"3 c #B18A5E",
"4 c #A58261",
"5 c #AA8662",
"6 c #AE8965",
"7 c #AE8B68",
"8 c #B48D63",
"9 c #B28E69",
"0 c #B79064",
"q c #BA9366",
"w c #B6916B",
"e c #BD966A",
"r c #BF986C",
"t c #A98B72",
"y c #B18F71",
"u c #B59373",
"i c #BC9670",
"p c #BE9971",
"a c #BC9A79",
"s c #C19A6D",
"d c #C49D72",
"f c #C19E7A",
"g c #C7A074",
"h c #C9A176",
"j c #C6A27A",
"k c #CAA57B",
"l c #CCA87F",
"z c #CDA981",
"x c #D0AC83",
/* pixels */
"lrqss0o+&*drd1@#,=+e0=<dhhress3o+&-fss2+===@s8=5dz",
"dddrrr, +5ddr-@-89955@:ddddsees=O+9sdq=&-9786=@:dz",
"drrqqq2<97sr25ddksere0-8dsrse0e,:89ss16ddhsesq0=9z",
"jgd8sq$6r8:4<dddsrrsss0,rddd3sqo9s6:-5dddsessss3-d",
"jgsesq150=++edgqssesdsq3-sdsssq,58=+@rddesdssdss04",
"%8q0q3#5ww9-eddrdddhdsss=+8e0q2#5ww6:dddsdddddsse6",
"%*302o1ddsre9gsddshhdss3-@*831o1ddsewwddsdshhdss28",
"yd7-@<pgsqrr5dddhdhhs33==6d9=#5dssess5dddddkds22=-",
"zdr-#drgg0rq-perssss0=--wdds=&dsdd0s0=sesgsqs3>=-a",
"jss03gsrsr01#5edhssss3-dhdds83dssss8=#5sshsssq3<dx",
"gdsrq7grssq1<58sdss332:hdsdssq9dsssq1-58sgss80,5dk",
"jssrr1<esq3=88$3s32,2X:dddsdqs=6esr2-w2=3q3211@5hj",
"gddses><12=*54*<===-=Owdsssdssq=:<1-*5<*,=<=<#+edd",
"ggseesq<;6pddgr5=-9w-Owssddsess0*:9pddje2*<8w-Oesl",
"pr8sdsq>5ddsdhrq19ds8=qssss3sds0-7hssdhr05wd03*rsk",
"prsssss14dskd0rq89ss2=ddssssssss,5sdksqrq2edr,5gdk",
"sshss3s21dsdss-s2-85=4dhddddss3s>5dsgs03q,<81>5gkz",
"hshh0s3--khssss3X=7=69udkdshd0s3,5khshg32o-9*95ugz",
"lshss08-=dshssq=#ss0-:deddddss03=*dhhss0>$sr8-7dej",
"us333==:67sss2=X7ss0-is0=7w823==568rss2o@wrr8*pr84",
"t:&-&:wqs8=:=-::6ed0#es0::&==&:qeq0-4=-6<7rs8#ee07",
"s8:+&wssss-@:ddhi6w-671#6u8-+&wssss=+4ddde6w<671#u",
"s0s==q8ssq2X8dsss-:9se:7dsqs==s8ssq,#edsdr-;wdw4wj",
"fds08=qssq==:wsss6-dse9sdddq88=srs8=&-isrd11dre6rj",
"kdsds-1whs=89.:ss-:ds86hdddsds=-wsq-98+5qq,5dr<8kl",
"ksqss0=&::ssd=+$3=$ss=:dddqsds0X&--dss,@>1=*r0>5dj",
"ddssqs= @:dds=$-866:-#:hhdds0ss= O7sde=@-85755@4gz",
"dsse0s1-:9ss-8ddhdqss8-8dsss3ss=469dr18idkrere0<wl",
"hdd3s0o8s:::-ddsdsssss8=sddsss3owr54<5dhddrrssq8<a",
"kdssss=58=$@sddsssqsdss3-sdssss=58$+@rsgessqrhse35",
";8s302=:9w6-ssdsddsddsss=@qq3s=o5ww5-dsgsdddhhssq6",
"%&832=5sdsss9ddsdsdhsss8=+-032o2ddsre9hdssrhhsqr30",
"ys7-#-ddsrss=dddhdkds30=#9d5-#-dddsse5dddddhds33=<",
"zds=%dsdd0se=desddss3==-wdds=&dsdd8se<desdsss3=,*a",
"fds02hssde0,@5eshssss3,dhdds83hssde8=#6edddss031dz",
"kdsqq8dssde,:48ssss033=ddsdsr00dsssq1:48sdss0015gk",
"ksses=5ssr2-e8=3qq221.4ksdssss=1sse2=w6=3s8211.5hj",
"dddsss=-<1=*4<--=<=-$+wdsssdess=-=1--4--======+edg",
"fdsessq--5iddde5*:99-Owrssdssqsq-:6pdddi5--99-+esj",
"dr8sssq=7ddsdhr019sq8=esdss3sssq-9ddsddeq:wsq6-isj",
"sssssss2:dskd0se8wdr1<dgsqssssss,5sshsess2eds15dgj",
"dshsq3q1<dsdse301<83=4dkhssdsq3e,2hsds08s=:01=6dkz",
"krhsqs81-kdsgd33o$7$67wjkdshsee3,5khshs3=X=7&77udz",
"ksdsse8,&dhkds0,#psw-5pedhsdsse8=*dhkss8==ss0-5dwz",
"ue888-=<69rrs3=X9de8-isq=9r823==558dss3=#wss8=dr85",
"t*&-**9req<1==5-5rs8#eqq<4&*-&4wre8-5$=5-5rs8#ie87",
"a8<@@eqsrs>+-ddhe6e4575$4e8-+&ersss=+4dddw994661#9",
"r0q=#rqrsq3@9dssr4*7de47de8r=#r8ssq1@wdsss<:9dw:9l",
"zde88<eqsq=*:idrd3-sre6rdhhqq8,rqs8=#:idsd2<sse9sk",
"lgsds=5esq=88+5er11dr25kddhsdr=5rsq=w8+5qr,5ds,9hj"
};
