/* XPM */
static char *wall2__1_1672993614[] = {
/* columns rows colors chars-per-pixel */
"50 50 43 1 ",
"  c #BC8537",
". c #B7863C",
"X c #BE8A3B",
"o c #C08738",
"O c #C48D3A",
"+ c #C88F3A",
"@ c #C6903B",
"# c #CC953D",
"$ c #CF993E",
"% c #D19A3F",
"& c #C49545",
"* c #C79A45",
"= c #CA9D44",
"- c #C69748",
"; c #CA9C4A",
": c #D49D40",
"> c #CE9F57",
", c #CEA14C",
"< c #D6A142",
"1 c #DAA443",
"2 c #DDAA45",
"3 c #D2A44D",
"4 c #D5AA4C",
"5 c #DAAD4E",
"6 c #DFB047",
"7 c #D5AA50",
"8 c #D8AC51",
"9 c #D7A85B",
"0 c #DAAC5C",
"q c #DCB252",
"w c #DEB25E",
"e c #E1AD46",
"r c #E3B147",
"t c #E5B448",
"y c #E9B549",
"u c #E6B84A",
"i c #EBBB4B",
"p c #F0BF4C",
"a c #E1B45F",
"s c #E9BF63",
"d c #EEC04D",
"f c #F0C14D",
"g c #ECC464",
/* pixels */
"312111e1e:e1111e11111111111111111111e:12111211e1e0",
"8eeeeeeeeee1ee1eeeeeeeeeeeeeeeeeeeeeeeeeeeeeeeeera",
",erryyeeeeeeeyyryyyyyyeyeyeeeyeererryyrtrryryyre10",
"-%:1riyyyyyiyyyee::eeyyyyyyyyyyyyyiiye11<112ee::%9",
";::::1tipiipye1<:::::11eyyppppppfit21:::::::::::%0",
";1e:11:11ee11111e:1:11111eeyypyy22<11111111111:e10",
";ee:e1eee1e11111:1e11111e1111111222r22e111e111e:ew",
":ee1eeeerrrtere2eeeeeeee1eeeeeeetr2<<2rreeeeeeee1a",
"7yeyttuu66t6ytyueyeeyeeeeeeyeyyy1@o   O:euyeyeetea",
"8yiyir<#@X@@#:1ryyyyyeyyyyyyyye:++++++OoO<tuyyyyys",
"tyy1:#@###@@++O+:1ypppyppypyy1&&####@+##@@@1tupipg",
";:::#%%%$$$%%###+++1eypppppe:%%#%#%%:=:%%::#:<1eya",
"&:::::%:::::%::::::##:1ee1:%:::::::%:%::::%:::::%0",
"-:<1<:11:11:1:::1:1:11:11:11:1:1::e:11<11::1<11:10",
"-222222112111:e:1:1111111111111111111111121e22e11a",
".##$:<22eeeeeeeeeeee1e1eeeeee1ee1eee1eeere11%%###>",
".@@#+@##=1etrrreeeeeeeeeeeeeeeeyeeyrue2:%#@@@@@@+>",
"X%#$$#$$###<2uyiyyyyytyyryyyyyyyuue2<%####%%#%%##8",
";%%%%%$%%<:#::1ryypyiiiiypiiypye2<<%%%%%:%%:%%%%%9",
",1<<12<<<11<<::::1yyippfpppr5e::<<1<<1<1::::::<<%0",
"42r66666222211211::::e1222<1122e62222112e1111112ea",
"72<<::122trreeerereeee2e22rrttttu666rr26eeeeeeeeta",
";$$$#$#$%<2tyuytyyyyeyyyuuuu623<<26uyyttyytyyyyyta",
"-%:%:%$%:%$$1yiiiiyyyyiiuu2<=%::%$$<2udiyiiiiiir19",
"-<:::1%1::::::eeidfffdur<$#:::::<%<%<<2rudddyt1<<8",
";11111111:e:e1::<12221<:<<11111e12111112226662221a",
"3ee2eeeeee1eeeee2211111122eeeeeee222ee2rr61112eeea",
"4yreeeeeerrteeetrtttttrrrreeetrttttttyt2:####$%%ea",
",tiyyyyyyyyuyiuuiuiiuuyuytuuyyiyrrtyr2%%#$%$%%%%%0",
"&<eippppfiifii52<116udidiiidir<:%%$$$#%%::::%%%1<0",
"&<11eryidiur2<1:<<<<11ruifdu2<:1<1<<<<<<<<1<1%1<<0",
"*ee1ee1ee2e1121111221111221<<122e2e22121112211221a",
"<rr6trrrtrrrreeeeeeeeeeeeeee62t6uuuteeeeeeeeeeeeea",
"46r211222etuuuuyryeryeeyeyeyyu62<<26iuttrrrryyeryg",
",%$#%##%#$$<1ruyiiiyyyyyiiyiy1%####=2upyiiiyiiiiya",
"*%:$:%%::%:%$%$<erifpppppid2$%%%:%::%1riififiir1%9",
"*<::1:1:<<<<<1%<%%%16uddi6<#$:<<<<%<1%%e2tt2e1%1%w",
";1111e1e222221111111<:<<<%%:<21222e11e11121111111w",
"3eeeeeeeeut6reeee1ee2e2222errrrr2eeeeeeerrrreeeeea",
"4reyryyr2<1riyryyyeyrtytuiyyyyttttrrryryyttyyyyyya",
"5iiiuu<+  o@1iiiiiiiyiuu6<<<12tyuddiiiir$@O#:tiyig",
"qpit1@++@+O+O=udddfddt<#OOXOXOO@#<1661$  OOO@@<yig",
"*1%#@##+###@###<6ut6:$####$###@#@@OOOOO+###$#$@$%w",
"O%%:::%%::::%%%=$$%%$%%$$%:%$%%%:::%$:%%$$%%$$:%%8",
"*1:<11:::%::11:1111<<1<<<<<<11111<21111<<<<<<<<<10",
"72ee1eeeeeeee1ee222rrr2r62ee225e6211226re1e2221eta",
"8uturytreeeyrrryr611166tyyyytre:$####$<eyttrttyyya",
",<1eyyyiippiiit2<%$%$$:<<222::::$$$$%$$%%ryiiiyr1a",
";::::1eyuipyr11:::::::::::::::::::::::::%:<121<%%5",
";11::::<1111<1:1::11::1:1:::::1:1:<<<<<<<<<<<<<<%0"
};
