/* XPM */
static char *water_floor1672993614[] = {
/* columns rows colors chars-per-pixel */
"50 50 64 1 ",
"  c #439CC5",
". c #469FC8",
"X c #46A0C7",
"o c #4BA5C7",
"O c #46A2C9",
"+ c #49A6CB",
"@ c #47A8CC",
"# c #4BABCD",
"$ c #51A5C9",
"% c #51ADCE",
"& c #5CABCE",
"* c #4FB0CF",
"= c #53B1CF",
"- c #4EAED0",
"; c #51AED0",
": c #4FB0D1",
"> c #54B3D2",
", c #5AB6D4",
"< c #57B8D3",
"1 c #5CB9D5",
"2 c #5DBAD8",
"3 c #62B7D4",
"4 c #69B7D3",
"5 c #63BBD6",
"6 c #6ABCD6",
"7 c #66BDD8",
"8 c #6ABED9",
"9 c #71BCD7",
"0 c #72BFDB",
"q c #6CC1DA",
"w c #73C3DB",
"e c #7AC6DD",
"r c #7DC9DE",
"t c #7DC7E0",
"y c #7EC9E0",
"u c #85C6DC",
"i c #82CADE",
"p c #8ACDDE",
"a c #85CCE1",
"s c #8BCEE2",
"d c #91CFE3",
"f c #8DD0E3",
"g c #93D2E4",
"h c #9AD5E6",
"j c #9DD8E6",
"k c #9FD7E8",
"l c #A0D7E7",
"z c #A3D9E7",
"x c #AADBE6",
"c c #A5DBE9",
"v c #ACDDEA",
"b c #B1DEEB",
"n c #AFE0EC",
"m c #B4E1EC",
"M c #BBE4EE",
"N c #BDE5F0",
"B c #C1E6EF",
"V c #C4E9EF",
"C c #C1E7F1",
"Z c #C5E9F1",
"A c #CCECF3",
"S c #D6EEF6",
"D c #DAEFF6",
"F c #DDF2F8",
/* pixels */
",=%,86=##3hVAADFvea6q5$43&q*=o@#######@###########",
">%-wiq%=pMVZAASSs%386%%9%4,#=#####+#o#o###@*#####>",
"#-;wspihmgiidzvvf,-##%64$4$#=*@#####@#@####*#+###1",
"7ww3wpfswq2<,15wfy869w0%$$ O1=@##+###############=",
"88;#,pq>57555q2<1wweeq;X   #q7#@@#@###@##*#####+#<",
"+###qq=#2qqqq72q=#==%*>5&%,5ai1=%##@@@#-*#@##O#>ix",
"%;>7q>##1qqqq<>52######<efsfeqqqte65>>;;##%>>5wsbb",
"qqwwq=##=qqqq<=<6=#@#%5wreww5=##>88eapaarriasssgfi",
"priwq>##>qqq6<=#72>#;73;*#OO+#;%#@##;0sssfsssssfe>",
"asaat>###7qqq2:#2q5,>#O@OX    X,>###-%,8eysssfsw=#",
"fhfit,#@*27qq5:#,q5>@.@.       o76%%##--#>tfse1###",
"cp,>37-#*<==2<##<2>#O X         @38>##@-@>ss5-@###",
"g,o@*<>>####>=##>>#O  O          #,,####5fc5##@#*<",
"5####*52*###:>=###O  .O         .X####,rsee3#>,37<",
"#####*<qw,**=<5<##X  O            +%#;ir2>>qae72<<",
"=#####%qhcgffgggw=@  OX         XX+#>wr5#@#>,>><25",
"h3##-#>qwpgfssspfi5$ O#O      .OO#@-ep%. X>>,557qq",
"Aa#%#-<<*>7q5522<5ww7,>-@O.  .#@##-,8%o  $27qqqqq6",
"Zs>##>>*###==######>7tks,-@@@###-;,>X...#6q8886725",
"ags<>#########+#@XO#-2wkze<##@@-,q>#.  +=773,55,>=",
"57hz7#####OO ++  X##,<>2aMvf030hz6-@.  %,%>3,,>378",
"2<7Mc5###@X   ######<,2><yNAZMbVh%@X  .;6=>,3esdff",
"<<<aAvq:#O   O######-<<,<2ehhi0hd##X  @#588esfawqp",
"22,6MAmq#@XX@#######-<2<22<qw7#ua##@  @#=rfsst>-#>",
"7778mAbs5,>><>>*#*##:<<22<2277#8s###. X--3asr;@###",
",775aNcse2%-:>>:##>#>>2222>272->i;X@@  @@-5y5#####",
"-<>--4gks>@#@#-#>>>--->>>>>>25@-e,...  @##>q,###>#",
"@@-@#@>gc7@@##@#@#@----<2>::,3-@w7X    X#@#77<:>>:",
"  X@###wne###:>-####>##><:##>2##6e@     .@>7>>,>##",
"   O###4vf->2et7###########@#>%#3a;.    O#,,##-#>,",
"   .@##3mh,<2rfs,#-##@*##@#o#>,#>s7@ .%4episieweew",
"   .###3Nz2<<qfi=######*######557gd633,3>&,8szMmjg",
"   .@##,Bv2<<qa7>######@*####*imjVVp,######*#5rft7",
"    ##@=mvq<7tq6<########*@o#2nAAAm5####+#####<<<<",
"@.  @###hxhst72q,@#####**=>*>wNAAAm,@####*###@<,,7",
"#O  O##O6hghq<72###@@3lnchfsyhAAAAj,#########-7aaz",
"#O   O###0hgeqq:@####eAAAAAAAAAAAAxq1=%*####@-6kew",
"#@   X#@##5pfe:@#####-rmAAAAAAMngglpire81=%%;5ry5-",
"      #####2rf2########wcVAAANawq1iw7wweereeaaw6,@",
"      O####*<ah&@O##@##<wcAAAkqq2*q7##O+%#>,57,>#@",
"       O+#%@,eMx8%%%+##<tvAAve28>@>q-   XXXXO#=##@",
"       .#*>ehbMMMgps5>6snCCze,<5>--5;         O#O@",
"     OO;wgcza856gcggzmBmfe7,:-%>#->-#X         X X",
"O OO+#8xmh8%@@##6sggmbl5*:##@#5=Oo;>#@O.          ",
"#;>5elbd6o. . .+,sfigq5*>72,<ww#. X>>--@XX        ",
"ezbZZb4o . .    #rr2w2<=qweeii,X   X>,<;##@OXXOO. ",
"hVAxe>@   XOX   @52<75<<1<<5qu6=%#OX+#>52>####@#-.",
"xl8&-#@..X@;X..@#>,<qwqr525qwprw52353,=>7e7=####@@",
"&XO##--+-@@@;;--><<2sysh977q464=@#oo$;70tast<>#@#.",
" .O@+,2,-#-;,78665>,ayzu=#<33o        .-5assw>-##O"
};
